<svg width="18" height="18" viewBox="0 0 18 18" fill="none" xmlns="http://www.w3.org/2000/svg">
<path d="M12.75 5.25C12.75 5.99168 12.5301 6.7167 12.118 7.33339C11.706 7.95007 11.1203 8.43072 10.4351 8.71455C9.74984 8.99838 8.99584 9.07264 8.26841 8.92794C7.54098 8.78325 6.8728 8.4261 6.34835 7.90165C5.8239 7.3772 5.46675 6.70902 5.32206 5.98159C5.17736 5.25416 5.25162 4.50016 5.53545 3.81494C5.81928 3.12971 6.29993 2.54404 6.91661 2.13199C7.5333 1.71993 8.25832 1.5 9 1.5C9.99456 1.5 10.9484 1.89509 11.6517 2.59835C12.3549 3.30161 12.75 4.25544 12.75 5.25Z" stroke="white" stroke-linecap="round" stroke-linejoin="round"/>
<path d="M2.55762 16.5C2.55762 13.5975 5.44512 11.25 9.00012 11.25C9.69944 11.2492 10.3957 11.3425 11.0701 11.5275" stroke="white" stroke-linecap="round" stroke-linejoin="round"/>
<path d="M16.5 13.5C16.5006 13.7355 16.4703 13.97 16.41 14.1975C16.3422 14.497 16.2257 14.7834 16.065 15.045C15.8006 15.4894 15.425 15.8572 14.9753 16.1124C14.5255 16.3675 14.0171 16.5011 13.5 16.5C12.7616 16.5021 12.0494 16.2264 11.505 15.7275C11.2794 15.5323 11.0869 15.3018 10.935 15.045C10.6495 14.5803 10.4989 14.0454 10.5 13.5C10.4994 13.1059 10.5766 12.7155 10.7272 12.3513C10.8777 11.987 11.0987 11.6561 11.3774 11.3774C11.6561 11.0987 11.987 10.8777 12.3513 10.7272C12.7155 10.5766 13.1059 10.4994 13.5 10.5C13.9209 10.4983 14.3373 10.5863 14.7214 10.7583C15.1056 10.9303 15.4486 11.1824 15.7275 11.4975C16.2241 12.0463 16.4994 12.7599 16.5 13.5Z" stroke="white" stroke-linecap="round" stroke-linejoin="round"/>
<path d="M14.6173 13.4854H12.3823" stroke="white" stroke-linecap="round" stroke-linejoin="round"/>
<path d="M13.5 12.3901V14.6326" stroke="white" stroke-linecap="round" stroke-linejoin="round"/>
</svg>
