<svg width="32" height="32" viewBox="0 0 32 32" fill="none" xmlns="http://www.w3.org/2000/svg">
<g clip-path="url(#clip0_70_917)">
<path d="M17.1331 2.6665C15.9668 2.66615 14.812 2.8956 13.7344 3.34174C12.6569 3.78788 11.6778 4.44196 10.8532 5.26661C10.0285 6.09127 9.37445 7.07033 8.92831 8.14786C8.48218 9.22539 8.25273 10.3803 8.25308 11.5465V14.3465C8.21072 15.411 7.92326 16.4513 7.41308 17.3865L5.71974 20.2132C5.46681 20.5871 5.30657 21.0159 5.2523 21.4641C5.19803 21.9123 5.25129 22.3669 5.40766 22.7905C5.56403 23.214 5.81902 23.5941 6.15153 23.8995C6.48403 24.2049 6.88449 24.4267 7.31974 24.5465C13.6948 26.6665 20.5847 26.6665 26.9597 24.5465C27.3804 24.4062 27.7642 24.1731 28.0827 23.8646C28.4012 23.556 28.6463 23.1799 28.7999 22.7639C28.9535 22.3479 29.0116 21.9027 28.9701 21.4612C28.9285 21.0197 28.7883 20.5932 28.5597 20.2132L26.8664 17.3865C26.3579 16.4506 26.0706 15.4107 26.0264 14.3465V11.5465C26.0124 9.1934 25.0705 6.94087 23.4053 5.27819C21.7401 3.61552 19.4862 2.677 17.1331 2.6665Z" stroke="#1F254F" stroke-width="1.5" stroke-linecap="round"/>
<path d="M21.5465 26.0933C21.5423 27.2695 21.0732 28.3964 20.2414 29.2282C19.4097 30.0599 18.2828 30.529 17.1065 30.5333C15.9304 30.5291 14.8038 30.0593 13.9732 29.2266C13.1405 28.396 12.6707 27.2694 12.6665 26.0933" stroke="#1F254F" stroke-width="1.5"/>
<rect x="17.5042" width="12" height="12" rx="6" fill="#FF5454"/>
</g>
<defs>
<clipPath id="clip0_70_917">
<rect width="32" height="32" fill="white"/>
</clipPath>
</defs>
</svg>
