<svg width="12" height="12" viewBox="0 0 12 12" fill="none" xmlns="http://www.w3.org/2000/svg">
<g clip-path="url(#clip0_145_4704)">
<path d="M3.34982 8.99981H2.07482C1.92878 9.02071 1.77989 9.00732 1.63993 8.96068C1.49997 8.91405 1.3728 8.83546 1.26848 8.73115C1.16417 8.62683 1.08558 8.49966 1.03895 8.3597C0.992315 8.21974 0.978917 8.07085 0.999815 7.92482V2.07482C0.978917 1.92878 0.992315 1.77989 1.03895 1.63993C1.08558 1.49997 1.16417 1.3728 1.26848 1.26848C1.3728 1.16417 1.49997 1.08558 1.63993 1.03895C1.77989 0.992315 1.92878 0.978917 2.07482 0.999815H4.22482C4.37085 0.978917 4.51975 0.992315 4.6597 1.03895C4.79966 1.08558 4.92683 1.16417 5.03115 1.26848C5.13546 1.3728 5.21405 1.49997 5.26068 1.63993C5.30732 1.77989 5.32071 1.92878 5.29982 2.07482V2.99982" stroke="#4755B5" stroke-linecap="round" stroke-linejoin="round"/>
<path d="M8.68533 4.20974V9.78974C8.70905 9.95371 8.69429 10.121 8.6422 10.2782C8.59012 10.4355 8.50214 10.5785 8.38523 10.6959C8.26832 10.8133 8.12569 10.9019 7.96863 10.9546C7.81157 11.0073 7.64439 11.0228 7.48033 10.9997H4.56033C4.39602 11.0229 4.22858 11.0076 4.07122 10.9549C3.91385 10.9023 3.77086 10.8139 3.65353 10.6965C3.5362 10.5792 3.44774 10.4362 3.39512 10.2789C3.3425 10.1215 3.32717 9.95405 3.35033 9.78974V4.20974C3.32717 4.04544 3.3425 3.878 3.39512 3.72063C3.44774 3.56326 3.5362 3.42028 3.65353 3.30295C3.77086 3.18562 3.91385 3.09715 4.07122 3.04453C4.22858 2.99192 4.39602 2.97658 4.56033 2.99974H7.48033C7.64439 2.97669 7.81157 2.99215 7.96863 3.04489C8.12569 3.09762 8.26832 3.1862 8.38523 3.30359C8.50214 3.42098 8.59012 3.56398 8.6422 3.72125C8.69429 3.87853 8.70905 4.04577 8.68533 4.20974Z" stroke="#4755B5" stroke-linecap="round" stroke-linejoin="round"/>
<path d="M6.69903 2.99982V2.07482C6.67814 1.92878 6.69153 1.77989 6.73817 1.63993C6.7848 1.49997 6.86339 1.3728 6.9677 1.26848C7.07202 1.16417 7.19919 1.08558 7.33915 1.03895C7.47911 0.992315 7.628 0.978917 7.77403 0.999815H9.92403C10.0701 0.978917 10.219 0.992315 10.3589 1.03895C10.4989 1.08558 10.6261 1.16417 10.7304 1.26848C10.8347 1.3728 10.9133 1.49997 10.9599 1.63993C11.0065 1.77989 11.0199 1.92878 10.999 2.07482V7.92482C11.0199 8.07085 11.0065 8.21974 10.9599 8.3597C10.9133 8.49966 10.8347 8.62683 10.7304 8.73115C10.6261 8.83546 10.4989 8.91405 10.3589 8.96068C10.219 9.00732 10.0701 9.02071 9.92403 8.99981H8.68403" stroke="#4755B5" stroke-linecap="round" stroke-linejoin="round"/>
<path d="M5 5.5H7" stroke="#4755B5" stroke-linecap="round" stroke-linejoin="round"/>
<path d="M5 7H7" stroke="#4755B5" stroke-linecap="round" stroke-linejoin="round"/>
<path d="M6 11V9.5" stroke="#4755B5" stroke-linecap="round" stroke-linejoin="round"/>
</g>
<defs>
<clipPath id="clip0_145_4704">
<rect width="12" height="12" fill="white"/>
</clipPath>
</defs>
</svg>
