<svg width="12" height="12" viewBox="0 0 12 12" fill="none" xmlns="http://www.w3.org/2000/svg">
<g clip-path="url(#clip0_145_4726)">
<path d="M1 11H11" stroke="#4755B5" stroke-linecap="round" stroke-linejoin="round"/>
<path d="M7.505 10.9944L1.505 11.0044L1.5 3.53493C1.50052 3.37072 1.54138 3.20915 1.61897 3.06442C1.69656 2.9197 1.80852 2.79625 1.945 2.70493L3.945 1.36993C4.10918 1.25991 4.30236 1.20117 4.5 1.20117C4.69764 1.20117 4.89082 1.25991 5.055 1.36993L7.055 2.70493C7.19223 2.79548 7.30477 2.91876 7.38245 3.06366C7.46014 3.20856 7.50054 3.37052 7.5 3.53493L7.505 10.9944Z" stroke="#4755B5" stroke-linecap="round" stroke-linejoin="round"/>
<path d="M9.99023 11.005V9" stroke="#4755B5" stroke-linecap="round" stroke-linejoin="round"/>
<path d="M10 6C9.73503 6.00079 9.48113 6.1064 9.29377 6.29377C9.1064 6.48113 9.00079 6.73503 9 7V8C9 8.26522 9.10536 8.51957 9.29289 8.70711C9.48043 8.89464 9.73478 9 10 9C10.2652 9 10.5196 8.89464 10.7071 8.70711C10.8946 8.51957 11 8.26522 11 8V7C10.9992 6.73503 10.8936 6.48113 10.7062 6.29377C10.5189 6.1064 10.265 6.00079 10 6Z" stroke="#4755B5" stroke-linecap="round" stroke-linejoin="round"/>
<path d="M1.5 7H7.5" stroke="#4755B5" stroke-linecap="round" stroke-linejoin="round"/>
<path d="M4.5 11V9.125" stroke="#4755B5" stroke-linecap="round" stroke-linejoin="round"/>
<path d="M6.25 0.75C7.28553 0.75 8.125 1.58947 8.125 2.625C8.125 3.66053 7.28553 4.5 6.25 4.5C5.21447 4.5 4.375 3.66053 4.375 2.625C4.375 1.58947 5.21447 0.75 6.25 0.75Z" fill="white" stroke="#4755B5" stroke-width="0.75"/>
<path d="M6.25 4.625C7.35457 4.625 8.25 3.72957 8.25 2.625C8.25 1.52043 7.35457 0.625 6.25 0.625C5.14543 0.625 4.25 1.52043 4.25 2.625C4.25 3.72957 5.14543 4.625 6.25 4.625Z" stroke="#4755B5" stroke-width="0.75"/>
<path d="M6.25 2.44434C6.28917 2.49288 6.33429 2.53703 6.38477 2.57422C6.42187 2.60152 6.46158 2.62479 6.50293 2.64453C6.48274 2.6773 6.46498 2.71148 6.4502 2.74707L6.42285 2.82422C6.41432 2.85376 6.40706 2.88383 6.40234 2.91406C6.38068 2.90942 6.35895 2.90499 6.33691 2.90234L6.25 2.89746C6.19825 2.89747 6.14691 2.90322 6.09668 2.91406C6.09607 2.9102 6.09637 2.90619 6.0957 2.90234L6.07715 2.82324L6.0498 2.74609C6.03501 2.71065 6.01625 2.67716 5.99609 2.64453C6.03804 2.62462 6.07861 2.6019 6.11621 2.57422C6.16659 2.53711 6.21088 2.49275 6.25 2.44434Z" fill="#292D32" stroke="#4755B5"/>
</g>
<defs>
<clipPath id="clip0_145_4726">
<rect width="12" height="12" fill="white"/>
</clipPath>
</defs>
</svg>
