<svg width="12" height="12" viewBox="0 0 12 12" fill="none" xmlns="http://www.w3.org/2000/svg">
<path d="M0.5 11H11.5" stroke="#4755B5" stroke-linecap="round" stroke-linejoin="round"/>
<path d="M9.89062 11.0054V8.77539" stroke="#4755B5" stroke-linecap="round" stroke-linejoin="round"/>
<path d="M9.90079 5.44532C9.75622 5.44492 9.613 5.4731 9.47937 5.52824C9.34573 5.58338 9.22431 5.66439 9.12209 5.76662C9.01986 5.86884 8.93885 5.99026 8.88371 6.1239C8.82857 6.25753 8.80039 6.40075 8.80079 6.54532V7.68032C8.80079 7.97205 8.91668 8.25184 9.12297 8.45813C9.32926 8.66442 9.60905 8.78032 9.90079 8.78032C10.1925 8.78032 10.4723 8.66442 10.6786 8.45813C10.8849 8.25184 11.0008 7.97205 11.0008 7.68032V6.54532C11.0012 6.40075 10.973 6.25753 10.9179 6.1239C10.8627 5.99026 10.7817 5.86884 10.6795 5.76662C10.5773 5.66439 10.4558 5.58338 10.3222 5.52824C10.1886 5.4731 10.0454 5.44492 9.90079 5.44532Z" stroke="#4755B5" stroke-linecap="round" stroke-linejoin="round"/>
<path d="M1.05078 10.9999V3.01488C1.05078 2.00988 1.55078 1.50488 2.54578 1.50488H5.66078C6.65578 1.50488 7.15078 2.00988 7.15078 3.01488V10.9999" stroke="#4755B5" stroke-linecap="round" stroke-linejoin="round"/>
<path d="M2.90039 4.125H5.37539" stroke="#4755B5" stroke-linecap="round" stroke-linejoin="round"/>
<path d="M2.90039 6H5.37539" stroke="#4755B5" stroke-linecap="round" stroke-linejoin="round"/>
<path d="M4.125 11V9.125" stroke="#4755B5" stroke-linecap="round" stroke-linejoin="round"/>
</svg>
