<svg width="12" height="12" viewBox="0 0 12 12" fill="none" xmlns="http://www.w3.org/2000/svg">
<g clip-path="url(#clip0_81_3669)">
<path d="M6.25035 11.0002H2.04035C1.76359 11.0015 1.49749 10.8935 1.29992 10.6997C1.10235 10.5059 0.989302 10.2419 0.985352 9.96517L0.985352 2.54517C0.985352 1.23517 1.96035 0.640175 3.15535 1.22517L5.37535 2.31517C5.62675 2.45408 5.83885 2.65442 5.99186 2.89749C6.14487 3.14056 6.2338 3.41843 6.25035 3.70517V11.0002Z" stroke="#2C3E91" stroke-linecap="round" stroke-linejoin="round"/>
<path d="M10.985 7.52996V9.41996C10.985 10.5 10.485 11 9.405 11H6.25V5.20996L6.485 5.25996L8.735 5.76496L9.75 5.98996C10.1016 6.0263 10.4256 6.19677 10.6547 6.4659C10.8837 6.73503 11.0003 7.08211 10.98 7.43496C10.9843 7.46643 10.986 7.49821 10.985 7.52996Z" stroke="#2C3E91" stroke-linecap="round" stroke-linejoin="round"/>
<path d="M2.75 4.5H4.485" stroke="#2C3E91" stroke-linecap="round" stroke-linejoin="round"/>
<path d="M2.75 6.5H4.485" stroke="#2C3E91" stroke-linecap="round" stroke-linejoin="round"/>
<path d="M8.73535 5.76477V7.37477C8.73535 7.67313 8.61683 7.95928 8.40585 8.17026C8.19487 8.38124 7.90872 8.49977 7.61035 8.49977C7.31198 8.49977 7.02583 8.38124 6.81486 8.17026C6.60388 7.95928 6.48535 7.67313 6.48535 7.37477V5.25977L8.73535 5.76477Z" stroke="#2C3E91" stroke-linecap="round" stroke-linejoin="round"/>
<path d="M10.9804 7.43514C10.963 7.72624 10.8332 7.99921 10.6183 8.19635C10.4035 8.39349 10.1203 8.49935 9.82882 8.49156C9.5373 8.48377 9.26024 8.36294 9.05619 8.1546C8.85213 7.94626 8.73708 7.66675 8.73535 7.37514V5.76514L9.75035 5.99014C10.1019 6.02648 10.4259 6.19694 10.655 6.46608C10.8841 6.73521 11.0006 7.08229 10.9804 7.43514Z" stroke="#2C3E91" stroke-linecap="round" stroke-linejoin="round"/>
</g>
<defs>
<clipPath id="clip0_81_3669">
<rect width="12" height="12" fill="white"/>
</clipPath>
</defs>
</svg>
