<svg width="18" height="18" viewBox="0 0 18 18" fill="none" xmlns="http://www.w3.org/2000/svg">
<g clip-path="url(#clip0_66_735)">
<path d="M5.25 6H3C2.60254 5.99881 2.2217 5.8404 1.94065 5.55935C1.6596 5.2783 1.50119 4.89746 1.5 4.5V3C1.50119 2.60254 1.6596 2.2217 1.94065 1.94065C2.2217 1.6596 2.60254 1.50119 3 1.5L5.25 1.5C5.64746 1.50119 6.0283 1.6596 6.30935 1.94065C6.5904 2.2217 6.74881 2.60254 6.75 3V4.5C6.74881 4.89746 6.5904 5.2783 6.30935 5.55935C6.0283 5.8404 5.64746 5.99881 5.25 6Z" stroke="white" stroke-linecap="round" stroke-linejoin="round"/>
<path d="M15.6 5.25H12.9C12.6613 5.25 12.4324 5.15518 12.2636 4.9864C12.0948 4.81761 12 4.58869 12 4.35V3.15C12 2.91131 12.0948 2.68239 12.2636 2.5136C12.4324 2.34482 12.6613 2.25 12.9 2.25H15.6C15.8387 2.25 16.0676 2.34482 16.2364 2.5136C16.4052 2.68239 16.5 2.91131 16.5 3.15V4.35C16.5 4.58869 16.4052 4.81761 16.2364 4.9864C16.0676 5.15518 15.8387 5.25 15.6 5.25Z" stroke="white" stroke-linecap="round" stroke-linejoin="round"/>
<path d="M15.6 10.875H12.9C12.6613 10.875 12.4324 10.7802 12.2636 10.6114C12.0948 10.4426 12 10.2137 12 9.975V8.775C12 8.53631 12.0948 8.30739 12.2636 8.1386C12.4324 7.96982 12.6613 7.875 12.9 7.875H15.6C15.8387 7.875 16.0676 7.96982 16.2364 8.1386C16.4052 8.30739 16.5 8.53631 16.5 8.775V9.975C16.5 10.2137 16.4052 10.4426 16.2364 10.6114C16.0676 10.7802 15.8387 10.875 15.6 10.875Z" stroke="white" stroke-linecap="round" stroke-linejoin="round"/>
<path d="M6.75 3.75H12" stroke="white" stroke-linecap="round" stroke-linejoin="round"/>
<path d="M9.375 3.75V13.5C9.37619 13.8975 9.5346 14.2783 9.81565 14.5593C10.0967 14.8404 10.4775 14.9988 10.875 15H12" stroke="white" stroke-linecap="round" stroke-linejoin="round"/>
<path d="M9.375 9.375H12" stroke="white" stroke-linecap="round" stroke-linejoin="round"/>
<path d="M15.6 16.5H12.9C12.6613 16.5 12.4324 16.4052 12.2636 16.2364C12.0948 16.0676 12 15.8387 12 15.6V14.4C12 14.1613 12.0948 13.9324 12.2636 13.7636C12.4324 13.5948 12.6613 13.5 12.9 13.5H15.6C15.8387 13.5 16.0676 13.5948 16.2364 13.7636C16.4052 13.9324 16.5 14.1613 16.5 14.4V15.6C16.5 15.8387 16.4052 16.0676 16.2364 16.2364C16.0676 16.4052 15.8387 16.5 15.6 16.5Z" stroke="white" stroke-linecap="round" stroke-linejoin="round"/>
</g>
<defs>
<clipPath id="clip0_66_735">
<rect width="18" height="18" fill="white"/>
</clipPath>
</defs>
</svg>
