<svg width="18" height="18" viewBox="0 0 18 18" fill="none" xmlns="http://www.w3.org/2000/svg">
<path d="M5.02521 13.5002H3.11271C2.89366 13.5316 2.67032 13.5115 2.46038 13.4415C2.25044 13.3716 2.05968 13.2537 1.90321 13.0972C1.74674 12.9407 1.62886 12.75 1.55891 12.54C1.48896 12.3301 1.46886 12.1068 1.50021 11.8877V3.11271C1.46886 2.89366 1.48896 2.67032 1.55891 2.46038C1.62886 2.25044 1.74674 2.05968 1.90321 1.90321C2.05968 1.74674 2.25044 1.62886 2.46038 1.55891C2.67032 1.48896 2.89366 1.46886 3.11271 1.50021H6.33771C6.55676 1.46886 6.78011 1.48896 6.99004 1.55891C7.19998 1.62886 7.39074 1.74674 7.54721 1.90321C7.70368 2.05968 7.82156 2.25044 7.89151 2.46038C7.96146 2.67032 7.98156 2.89366 7.95021 3.11271V4.50021" stroke="white" stroke-linecap="round" stroke-linejoin="round"/>
<path d="M13.0275 6.3151V14.6851C13.0631 14.9311 13.0409 15.1819 12.9628 15.4178C12.8847 15.6537 12.7527 15.8682 12.5774 16.0443C12.402 16.2204 12.188 16.3533 11.9525 16.4324C11.7169 16.5115 11.4661 16.5347 11.22 16.5001H6.84C6.59354 16.5348 6.34238 16.5118 6.10634 16.4329C5.87029 16.354 5.65581 16.2213 5.47981 16.0453C5.30382 15.8693 5.17112 15.6548 5.09219 15.4188C5.01326 15.1827 4.99026 14.9316 5.025 14.6851V6.3151C4.99026 6.06864 5.01326 5.81748 5.09219 5.58143C5.17112 5.34538 5.30382 5.1309 5.47981 4.95491C5.65581 4.77891 5.87029 4.64622 6.10634 4.56729C6.34238 4.48836 6.59354 4.46536 6.84 4.5001H11.22C11.4661 4.46553 11.7169 4.48871 11.9525 4.56782C12.188 4.64693 12.402 4.77978 12.5774 4.95587C12.7527 5.13196 12.8847 5.34645 12.9628 5.58237C13.0409 5.81828 13.0631 6.06915 13.0275 6.3151Z" stroke="white" stroke-linecap="round" stroke-linejoin="round"/>
<path d="M10.05 4.50021V3.11271C10.0187 2.89366 10.0388 2.67032 10.1087 2.46038C10.1787 2.25044 10.2965 2.05968 10.453 1.90321C10.6095 1.74674 10.8002 1.62886 11.0102 1.55891C11.2201 1.48896 11.4435 1.46886 11.6625 1.50021H14.8875C15.1066 1.46886 15.3299 1.48896 15.5398 1.55891C15.7498 1.62886 15.9405 1.74674 16.097 1.90321C16.2535 2.05968 16.3714 2.25044 16.4413 2.46038C16.5113 2.67032 16.5314 2.89366 16.5 3.11271V11.8877C16.5314 12.1068 16.5113 12.3301 16.4413 12.54C16.3714 12.75 16.2535 12.9407 16.097 13.0972C15.9405 13.2537 15.7498 13.3716 15.5398 13.4415C15.3299 13.5115 15.1066 13.5316 14.8875 13.5002H13.0275" stroke="white" stroke-linecap="round" stroke-linejoin="round"/>
<path d="M7.5 8.25H10.5" stroke="white" stroke-linecap="round" stroke-linejoin="round"/>
<path d="M7.5 10.5H10.5" stroke="white" stroke-linecap="round" stroke-linejoin="round"/>
<path d="M9 16.5V14.25" stroke="white" stroke-linecap="round" stroke-linejoin="round"/>
</svg>
