<svg width="18" height="18" viewBox="0 0 18 18" fill="none" xmlns="http://www.w3.org/2000/svg">
<g clip-path="url(#clip0_66_626)">
<path d="M16.2449 7.82988L15.5099 10.9649C14.8799 13.6724 13.6349 14.7674 11.2949 14.5424C10.8852 14.5067 10.479 14.439 10.0799 14.3399L8.81989 14.0399C5.69239 13.2974 4.72489 11.7524 5.45989 8.61738L6.19489 5.47488C6.31819 4.90602 6.50433 4.35262 6.74989 3.82488C7.62664 2.00988 9.11989 1.52238 11.6249 2.11488L12.8774 2.40738C16.0199 3.14238 16.9799 4.69488 16.2449 7.82988Z" stroke="white" stroke-linecap="round" stroke-linejoin="round"/>
<path d="M11.295 14.5427C10.7478 14.8929 10.1546 15.1654 9.53251 15.3527L8.34751 15.7427C5.37001 16.7027 3.80251 15.9002 2.83501 12.9227L1.87501 9.9602C0.915012 6.9827 1.71001 5.4077 4.68751 4.4477L5.87251 4.0577C6.16016 3.96293 6.45318 3.8853 6.75001 3.8252C6.50445 4.35293 6.31831 4.90633 6.19501 5.4752L5.46001 8.6177C4.72501 11.7527 5.69251 13.2977 8.82001 14.0402L10.08 14.3402C10.4791 14.4393 10.8854 14.507 11.295 14.5427Z" stroke="white" stroke-linecap="round" stroke-linejoin="round"/>
<path d="M9.47998 6.39746L13.1175 7.31996" stroke="white" stroke-linecap="round" stroke-linejoin="round"/>
<path d="M8.74512 9.2998L10.9201 9.8548" stroke="white" stroke-linecap="round" stroke-linejoin="round"/>
</g>
<defs>
<clipPath id="clip0_66_626">
<rect width="18" height="18" fill="white"/>
</clipPath>
</defs>
</svg>
