<svg width="18" height="18" viewBox="0 0 18 18" fill="none" xmlns="http://www.w3.org/2000/svg">
<g clip-path="url(#clip0_66_694)">
<path d="M2.51262 1.5H9.18761C9.45572 1.50138 9.71245 1.6085 9.90204 1.79808C10.0916 1.98766 10.1987 2.24439 10.2001 2.5125V3.6225C10.1691 4.05572 9.99192 4.46558 9.69761 4.785L7.52262 6.705C7.20798 7.0108 7.0273 7.4288 7.02011 7.8675V10.0425C7.01228 10.2111 6.96719 10.3759 6.88809 10.5251C6.80899 10.6742 6.69783 10.8039 6.56261 10.905L5.85761 11.3625C5.70258 11.4569 5.52537 11.5087 5.34389 11.5127C5.16241 11.5167 4.9831 11.4728 4.82406 11.3852C4.66502 11.2977 4.5319 11.1698 4.43815 11.0144C4.34439 10.8589 4.29333 10.6815 4.29012 10.5V7.8225C4.26273 7.43541 4.12186 7.06497 3.88512 6.7575L1.96512 4.7325C1.70124 4.4573 1.53975 4.09991 1.50762 3.72V2.5575C1.50229 2.42161 1.52426 2.28603 1.57222 2.15877C1.62018 2.03151 1.69316 1.91515 1.78685 1.81657C1.88053 1.71799 1.99303 1.63918 2.11768 1.58481C2.24234 1.53044 2.37663 1.5016 2.51262 1.5Z" fill="#BDA862"/>
<path d="M1.5 9.00018V11.2502C1.5 15.0002 3 16.5002 6.75 16.5002H11.25C15 16.5002 16.5 15.0002 16.5 11.2502V6.75018C16.5 4.41018 15.915 2.94018 14.5575 2.17518C13.9698 1.92158 13.3483 1.75483 12.7125 1.68018" stroke="white" stroke-linecap="round" stroke-linejoin="round"/>
<path d="M9.75 9.75H13.5" stroke="white" stroke-linecap="round" stroke-linejoin="round"/>
<path d="M8.25 12.75H13.5" stroke="white" stroke-linecap="round" stroke-linejoin="round"/>
</g>
<defs>
<clipPath id="clip0_66_694">
<rect width="18" height="18" fill="white"/>
</clipPath>
</defs>
</svg>
