<svg width="20" height="24" viewBox="0 0 20 24" fill="none" xmlns="http://www.w3.org/2000/svg">
<g clip-path="url(#clip0_81_3458)">
<path d="M12.6611 1.07324H3.52051C2.98179 1.07324 2.46513 1.29505 2.0842 1.68986C1.70326 2.08467 1.48926 2.62016 1.48926 3.17851V20.0206C1.48926 20.579 1.70326 21.1144 2.0842 21.5093C2.46513 21.9041 2.98179 22.1259 3.52051 22.1259H15.708C16.2467 22.1259 16.7634 21.9041 17.1443 21.5093C17.5252 21.1144 17.7393 20.579 17.7393 20.0206V6.3364L12.6611 1.07324Z" stroke="#1F254F" stroke-width="1.25" stroke-linecap="round" stroke-linejoin="round"/>
<path d="M11.6455 1.07324V5.28377C11.6455 5.84212 11.8595 6.3776 12.2404 6.77241C12.6214 7.16723 13.138 7.38903 13.6768 7.38903H17.7393" stroke="#1F254F" stroke-width="1.25" stroke-linecap="round" stroke-linejoin="round"/>
<path d="M7.58301 8.44141H5.55176" stroke="#1F254F" stroke-width="1.25" stroke-linecap="round" stroke-linejoin="round"/>
<path d="M13.6768 12.6519H5.55176" stroke="#1F254F" stroke-width="1.25" stroke-linecap="round" stroke-linejoin="round"/>
<path d="M13.6768 16.8623H5.55176" stroke="#1F254F" stroke-width="1.25" stroke-linecap="round" stroke-linejoin="round"/>
</g>
<defs>
<clipPath id="clip0_81_3458">
<rect width="19.5" height="24" fill="white"/>
</clipPath>
</defs>
</svg>
