<svg width="24" height="24" viewBox="0 0 24 24" fill="none" xmlns="http://www.w3.org/2000/svg">
<path d="M11 2H9C4 2 2 4 2 9V15C2 20 4 22 9 22H15C20 22 22 20 22 15V13" stroke="#4755B5" stroke-width="1.5" stroke-linecap="round" stroke-linejoin="round"/>
<path d="M16.0403 3.02025L8.16033 10.9003C7.82254 11.2708 7.59408 11.7277 7.50033 12.2203L7.07033 15.2303C7.0181 15.4643 7.0258 15.7077 7.09274 15.9379C7.15967 16.1682 7.28366 16.3778 7.45321 16.5474C7.62276 16.7169 7.83238 16.8409 8.06263 16.9078C8.29288 16.9748 8.53631 16.9825 8.77033 16.9303L11.7803 16.5003C12.2714 16.4023 12.7273 16.1743 13.1003 15.8403L20.9803 7.96025C22.3403 6.60025 22.9803 5.02025 20.9803 3.02025C18.9803 1.02025 17.4003 1.66025 16.0403 3.02025Z" stroke="#4755B5" stroke-width="1.5" stroke-linecap="round" stroke-linejoin="round"/>
<path d="M14.9102 4.15039C15.2417 5.32786 15.8701 6.40046 16.7351 7.26544C17.6001 8.13042 18.6727 8.7588 19.8502 9.09039" stroke="#4755B5" stroke-width="1.5" stroke-linecap="round" stroke-linejoin="round"/>
</svg>
