<svg width="12" height="12" viewBox="0 0 12 12" fill="none" xmlns="http://www.w3.org/2000/svg">
<g clip-path="url(#clip0_81_2395)">
<path d="M0.960765 5.75359C0.921932 5.64898 0.921932 5.5339 0.960765 5.42929C1.33898 4.51223 1.98097 3.72812 2.80535 3.17637C3.62974 2.62462 4.59939 2.33008 5.59137 2.33008C6.58336 2.33008 7.55301 2.62462 8.3774 3.17637C9.20178 3.72812 9.84377 4.51223 10.222 5.42929C10.2608 5.5339 10.2608 5.64898 10.222 5.75359C9.84377 6.67065 9.20178 7.45475 8.3774 8.0065C7.55301 8.55826 6.58336 8.8528 5.59137 8.8528C4.59939 8.8528 3.62974 8.55826 2.80535 8.0065C1.98097 7.45475 1.33898 6.67065 0.960765 5.75359Z" stroke="#2F5DE9" stroke-width="0.9319" stroke-linecap="round" stroke-linejoin="round"/>
<path d="M5.59121 6.98906C6.36322 6.98906 6.98906 6.36322 6.98906 5.59121C6.98906 4.8192 6.36322 4.19336 5.59121 4.19336C4.8192 4.19336 4.19336 4.8192 4.19336 5.59121C4.19336 6.36322 4.8192 6.98906 5.59121 6.98906Z" stroke="#2F5DE9" stroke-width="0.9319" stroke-linecap="round" stroke-linejoin="round"/>
</g>
<defs>
<clipPath id="clip0_81_2395">
<rect width="11.1828" height="11.1828" fill="white"/>
</clipPath>
</defs>
</svg>
