<svg width="18" height="18" viewBox="0 0 18 18" fill="none" xmlns="http://www.w3.org/2000/svg">
<path d="M11.6854 9.00043C11.6854 9.53147 11.528 10.0506 11.2329 10.4921C10.9379 10.9337 10.5186 11.2778 10.0279 11.481C9.53732 11.6843 8.99745 11.7374 8.47661 11.6338C7.95577 11.5302 7.47735 11.2745 7.10185 10.899C6.72635 10.5235 6.47062 10.0451 6.36702 9.52425C6.26342 9.00341 6.31659 8.46355 6.51981 7.97293C6.72304 7.48231 7.06718 7.06297 7.50872 6.76794C7.95027 6.4729 8.46939 6.31543 9.00043 6.31543C9.35314 6.31504 9.70246 6.38422 10.0284 6.51901C10.3543 6.6538 10.6505 6.85157 10.8999 7.10097C11.1493 7.35037 11.3471 7.64652 11.4819 7.97246C11.6166 8.2984 11.6858 8.64772 11.6854 9.00043Z" stroke="#1F254F" stroke-linecap="round" stroke-linejoin="round"/>
<path d="M8.99985 15.2025C11.6473 15.2025 14.1148 13.6425 15.8323 10.9425C16.1643 10.3476 16.3386 9.67759 16.3386 8.99629C16.3386 8.31498 16.1643 7.645 15.8323 7.05004C14.1111 4.35004 11.6473 2.79004 8.99985 2.79004C6.35235 2.79004 3.88485 4.35004 2.16735 7.05004C1.83539 7.645 1.66113 8.31498 1.66113 8.99629C1.66113 9.67759 1.83539 10.3476 2.16735 10.9425C3.88485 13.6425 6.35235 15.2025 8.99985 15.2025Z" stroke="#1F254F" stroke-linecap="round" stroke-linejoin="round"/>
</svg>
