<svg width="18" height="18" viewBox="0 0 18 18" fill="none" xmlns="http://www.w3.org/2000/svg">
<g clip-path="url(#clip0_121_307)">
<path d="M16.5 13.125H11.25" stroke="#999999" stroke-linecap="round" stroke-linejoin="round"/>
<path d="M3.75 13.125H1.5" stroke="#999999" stroke-linecap="round" stroke-linejoin="round"/>
<path d="M16.5 4.875H14.25" stroke="#999999" stroke-linecap="round" stroke-linejoin="round"/>
<path d="M6.75 4.875H1.5" stroke="#999999" stroke-linecap="round" stroke-linejoin="round"/>
<path d="M5.24982 10.8748H9.74982C9.95291 10.8492 10.1592 10.8703 10.3528 10.9367C10.5465 11.003 10.7224 11.1127 10.8672 11.2575C11.0119 11.4022 11.1216 11.5781 11.188 11.7718C11.2543 11.9655 11.2754 12.1717 11.2498 12.3748V13.8748C11.2754 14.0779 11.2543 14.2842 11.188 14.4778C11.1216 14.6715 11.0119 14.8474 10.8672 14.9922C10.7224 15.1369 10.5465 15.2466 10.3528 15.313C10.1592 15.3793 9.95291 15.4004 9.74982 15.3748H5.24982C5.04673 15.4004 4.84046 15.3793 4.6468 15.313C4.45314 15.2466 4.27721 15.1369 4.13247 14.9922C3.98772 14.8474 3.87799 14.6715 3.81167 14.4778C3.74535 14.2842 3.72419 14.0779 3.74982 13.8748V12.3748C3.72419 12.1717 3.74535 11.9655 3.81167 11.7718C3.87799 11.5781 3.98772 11.4022 4.13247 11.2575C4.27721 11.1127 4.45314 11.003 4.6468 10.9367C4.84046 10.8703 5.04673 10.8492 5.24982 10.8748Z" stroke="#999999" stroke-linecap="round" stroke-linejoin="round"/>
<path d="M8.24982 2.62482H12.7498C12.9529 2.59919 13.1592 2.62035 13.3528 2.68667C13.5465 2.75299 13.7224 2.86272 13.8672 3.00747C14.0119 3.15221 14.1216 3.32814 14.188 3.5218C14.2543 3.71546 14.2754 3.92173 14.2498 4.12482V5.62482C14.2754 5.82791 14.2543 6.03417 14.188 6.22783C14.1216 6.42149 14.0119 6.59742 13.8672 6.74217C13.7224 6.88692 13.5465 6.99665 13.3528 7.06297C13.1592 7.12929 12.9529 7.15044 12.7498 7.12482H8.24982C8.04673 7.15044 7.84046 7.12929 7.6468 7.06297C7.45314 6.99665 7.27721 6.88692 7.13247 6.74217C6.98772 6.59742 6.87799 6.42149 6.81167 6.22783C6.74535 6.03417 6.72419 5.82791 6.74982 5.62482V4.12482C6.72419 3.92173 6.74535 3.71546 6.81167 3.5218C6.87799 3.32814 6.98772 3.15221 7.13247 3.00747C7.27721 2.86272 7.45314 2.75299 7.6468 2.68667C7.84046 2.62035 8.04673 2.59919 8.24982 2.62482Z" stroke="#999999" stroke-linecap="round" stroke-linejoin="round"/>
</g>
<defs>
<clipPath id="clip0_121_307">
<rect width="18" height="18" fill="white"/>
</clipPath>
</defs>
</svg>
