<svg width="14" height="14" viewBox="0 0 14 14" fill="none" xmlns="http://www.w3.org/2000/svg">
<g clip-path="url(#clip0_81_3545)">
<path d="M3.90812 10.4998H2.42062C2.25024 10.5242 2.07653 10.5085 1.91325 10.4541C1.74997 10.3997 1.6016 10.308 1.4799 10.1863C1.3582 10.0646 1.26651 9.91627 1.21211 9.75299C1.1577 9.5897 1.14207 9.41599 1.16645 9.24562V2.42062C1.14207 2.25024 1.1577 2.07653 1.21211 1.91325C1.26651 1.74997 1.3582 1.6016 1.4799 1.4799C1.6016 1.3582 1.74997 1.26651 1.91325 1.21211C2.07653 1.1577 2.25024 1.14207 2.42062 1.16645H4.92895C5.09933 1.14207 5.27304 1.1577 5.43632 1.21211C5.5996 1.26651 5.74797 1.3582 5.86967 1.4799C5.99137 1.6016 6.08306 1.74997 6.13746 1.91325C6.19187 2.07653 6.2075 2.25024 6.18312 2.42062V3.49978" stroke="#2C3E91" stroke-linecap="round" stroke-linejoin="round"/>
<path d="M10.1329 4.91169V11.4217C10.1606 11.613 10.1433 11.8081 10.0826 11.9916C10.0218 12.1751 9.91916 12.3419 9.78277 12.4789C9.64637 12.6158 9.47997 12.7192 9.29674 12.7807C9.1135 12.8422 8.91846 12.8602 8.72705 12.8334H5.32038C5.12869 12.8604 4.93335 12.8425 4.74975 12.7811C4.56616 12.7197 4.39934 12.6165 4.26245 12.4796C4.12557 12.3427 4.02236 12.1759 3.96097 11.9923C3.89959 11.8087 3.8817 11.6134 3.90872 11.4217V4.91169C3.8817 4.72 3.89959 4.52465 3.96097 4.34106C4.02236 4.15747 4.12557 3.99065 4.26245 3.85376C4.39934 3.71688 4.56616 3.61367 4.74975 3.55228C4.93335 3.49089 5.12869 3.473 5.32038 3.50002H8.72705C8.91846 3.47313 9.1135 3.49117 9.29674 3.55269C9.47997 3.61422 9.64637 3.71755 9.78277 3.85451C9.91916 3.99147 10.0218 4.1583 10.0826 4.34179C10.1433 4.52528 10.1606 4.72039 10.1329 4.91169Z" stroke="#2C3E91" stroke-linecap="round" stroke-linejoin="round"/>
<path d="M7.81684 3.49978V2.42062C7.79246 2.25024 7.80809 2.07653 7.8625 1.91325C7.9169 1.74997 8.00859 1.6016 8.13029 1.4799C8.25199 1.3582 8.40036 1.26651 8.56364 1.21211C8.72692 1.1577 8.90064 1.14207 9.07101 1.16645H11.5793C11.7497 1.14207 11.9234 1.1577 12.0867 1.21211C12.25 1.26651 12.3984 1.3582 12.5201 1.4799C12.6418 1.6016 12.7334 1.74997 12.7879 1.91325C12.8423 2.07653 12.8579 2.25024 12.8335 2.42062V9.24562C12.8579 9.41599 12.8423 9.5897 12.7879 9.75299C12.7334 9.91627 12.6418 10.0646 12.5201 10.1863C12.3984 10.308 12.25 10.3997 12.0867 10.4541C11.9234 10.5085 11.7497 10.5242 11.5793 10.4998H10.1327" stroke="#2C3E91" stroke-linecap="round" stroke-linejoin="round"/>
<path d="M5.83301 6.4165H8.16634" stroke="#2C3E91" stroke-linecap="round" stroke-linejoin="round"/>
<path d="M5.83301 8.1665H8.16634" stroke="#2C3E91" stroke-linecap="round" stroke-linejoin="round"/>
<path d="M7 12.8335V11.0835" stroke="#2C3E91" stroke-linecap="round" stroke-linejoin="round"/>
</g>
<defs>
<clipPath id="clip0_81_3545">
<rect width="14" height="14" fill="white"/>
</clipPath>
</defs>
</svg>
