<svg width="18" height="18" viewBox="0 0 18 18" fill="none" xmlns="http://www.w3.org/2000/svg">
<g clip-path="url(#clip0_161_7747)">
<path d="M4.5 7.5V6C4.5 3.5175 5.25 1.5 9 1.5C12.75 1.5 13.5 3.5175 13.5 6V7.5" stroke="#292D32" stroke-linecap="round" stroke-linejoin="round"/>
<path d="M10.875 12C10.875 12.3708 10.765 12.7334 10.559 13.0417C10.353 13.35 10.0601 13.5904 9.71753 13.7323C9.37492 13.8742 8.99792 13.9113 8.63421 13.839C8.27049 13.7666 7.9364 13.588 7.67418 13.3258C7.41195 13.0636 7.23338 12.7295 7.16103 12.3658C7.08868 12.0021 7.12581 11.6251 7.26773 11.2825C7.40964 10.9399 7.64996 10.647 7.95831 10.441C8.26665 10.235 8.62916 10.125 9 10.125C9.49728 10.125 9.9742 10.3225 10.3258 10.6742C10.6775 11.0258 10.875 11.5027 10.875 12Z" stroke="#292D32" stroke-linecap="round" stroke-linejoin="round"/>
<path d="M12.75 16.5H5.25C2.25 16.5 1.5 15.75 1.5 12.75V11.25C1.5 8.25 2.25 7.5 5.25 7.5H12.75C15.75 7.5 16.5 8.25 16.5 11.25V12.75C16.5 15.75 15.75 16.5 12.75 16.5Z" stroke="#292D32" stroke-linecap="round" stroke-linejoin="round"/>
</g>
<defs>
<clipPath id="clip0_161_7747">
<rect width="18" height="18" fill="white"/>
</clipPath>
</defs>
</svg>
