<svg width="52" height="85" viewBox="0 0 52 85" fill="none" xmlns="http://www.w3.org/2000/svg">
<g clip-path="url(#clip0_81_1075)">
<path d="M5.35774 82.4921C5.35774 82.8883 5.29854 83.2383 5.18753 83.546C5.07282 83.8537 4.89521 84.1152 4.65099 84.3344C4.40677 84.5537 4.09225 84.7191 3.70742 84.8306C3.32259 84.9421 2.86006 84.9998 2.32352 84.9998C2.1459 84.9998 1.94609 84.9998 1.72777 84.9921C1.50946 84.9844 1.28744 84.9768 1.06172 84.9652C0.836005 84.9537 0.613988 84.9383 0.395671 84.9229C0.177355 84.9075 -0.0224599 84.8883 -0.200073 84.8691V76.0421C0.136652 75.9998 0.491879 75.9729 0.869307 75.9537C1.24674 75.9344 1.62416 75.9268 1.99789 75.9268C2.45673 75.9268 2.86746 75.9691 3.23008 76.0498C3.59271 76.1306 3.90353 76.2575 4.15885 76.4229C4.41417 76.5921 4.61399 76.8114 4.7509 77.0806C4.88781 77.3498 4.95811 77.6729 4.95811 78.0421C4.95811 78.346 4.91371 78.6114 4.8212 78.8421C4.7287 79.0729 4.60659 79.2768 4.45118 79.4421C4.29576 79.6114 4.12185 79.7498 3.92204 79.8575C3.72222 79.9652 3.52241 80.046 3.31519 80.096V80.1229C3.66302 80.1998 3.96274 80.3114 4.22176 80.4575C4.47708 80.6075 4.69169 80.7806 4.85821 80.9844C5.02472 81.1883 5.15053 81.4191 5.23563 81.6729C5.32074 81.9268 5.36144 82.1998 5.36144 82.4845L5.35774 82.4921ZM3.74812 78.1844C3.74812 77.8921 3.70372 77.646 3.61861 77.4421C3.53351 77.2383 3.4077 77.0729 3.24859 76.9421C3.08947 76.8114 2.89336 76.7152 2.66764 76.6537C2.43822 76.5921 2.18291 76.5614 1.89798 76.5614C1.76847 76.5614 1.66117 76.5614 1.57236 76.5652C1.48355 76.5652 1.40215 76.5729 1.33184 76.5768C1.26154 76.5845 1.19863 76.5883 1.14313 76.596C1.08762 76.6037 1.02842 76.6075 0.965514 76.6152V79.8575H2.0793C2.30872 79.8575 2.51593 79.8345 2.70464 79.7921C2.89336 79.7498 3.04877 79.6921 3.17828 79.6229C3.24119 79.5883 3.30409 79.5383 3.37069 79.4691C3.4373 79.4037 3.5002 79.3114 3.55571 79.1998C3.61121 79.0883 3.65932 78.946 3.69262 78.7806C3.72962 78.6152 3.74812 78.4152 3.74812 78.1844ZM4.14405 82.4537C4.14405 82.0998 4.08485 81.796 3.97384 81.546C3.85913 81.296 3.70742 81.0921 3.51131 80.9344C3.31889 80.7768 3.09317 80.6652 2.83785 80.596C2.58254 80.5268 2.30872 80.4921 2.02379 80.4921H0.969215V84.2652C1.09132 84.2768 1.25414 84.2921 1.46135 84.3114C1.66487 84.3306 1.89058 84.3421 2.1348 84.3421C2.25691 84.3421 2.38642 84.3383 2.51963 84.3306C2.65284 84.3229 2.78235 84.3075 2.90816 84.2883C3.03397 84.2691 3.14868 84.2421 3.25599 84.2152C3.36329 84.1845 3.4484 84.1498 3.51501 84.1114C3.58901 84.0691 3.65932 84.0152 3.73332 83.946C3.80733 83.8768 3.87393 83.7768 3.93314 83.6498C3.99604 83.5229 4.04415 83.3614 4.08485 83.1691C4.12555 82.9768 4.14405 82.7383 4.14405 82.4537Z" fill="white"/>
<path d="M11.6112 84.904H7.02655V75.981H11.4262L11.3411 76.6271L8.18844 76.6694V79.831L11.1561 79.8656L11.071 80.431L8.18844 80.5002V84.2117L11.6926 84.281L11.6075 84.9002L11.6112 84.904Z" fill="white"/>
<path d="M20.0441 84.9464L13.9831 77.9925H13.9572C13.9683 78.6502 13.9794 79.2464 13.9905 79.7887C13.9942 80.0194 14.0016 80.2502 14.0016 80.481C14.0016 80.7117 14.0053 80.9194 14.009 81.1117C14.009 81.304 14.0127 81.4694 14.0164 81.6079C14.0164 81.7464 14.0201 81.8425 14.0201 81.8964V84.904H13.2504V75.9194H13.7611L19.8295 82.854H19.8369C19.8258 82.2425 19.8184 81.6771 19.811 81.154C19.811 80.9348 19.811 80.7079 19.8073 80.4848C19.8073 80.2579 19.7999 80.0464 19.7999 79.8425C19.7999 79.6425 19.7962 79.4617 19.7962 79.3079V75.9887H20.5659V84.9464H20.0367H20.0441Z" fill="white"/>
<path d="M28.0737 84.9039L27.0006 81.6347L23.6963 81.677L22.5381 84.9001H21.6833L25.0876 76.0577L26.0941 75.7539L29.28 84.9039H28.0737ZM26.8267 81.0539L25.4021 76.8885L23.9109 81.0539H26.8267Z" fill="white"/>
<path d="M35.7556 84.9039L34.6825 81.6347L31.3781 81.677L30.2199 84.9001H29.3652L32.7694 76.0577L33.7759 75.7539L36.9618 84.9039H35.7556ZM34.5049 81.0539L33.0803 76.8885L31.589 81.0539H34.5049Z" fill="white"/>
<path d="M8.80271 60.8463H17.1172V56.3232L8.43638 56.3463C5.22824 56.7655 2.74536 59.6117 2.74536 63.0617C2.74536 63.8656 2.87857 64.6348 3.12648 65.3502H-0.188965V69.8732H17.1172V65.3502H8.92482C8.6362 65.2963 8.36608 65.1809 8.11816 65.0194C7.47801 64.6002 7.02658 63.8656 7.02658 63.0617C7.02658 61.9579 7.79253 61.0386 8.80271 60.8425V60.8463Z" fill="white"/>
<path d="M51.7999 74.377H47.4632V78.8846H51.7999V74.377Z" fill="white"/>
<path d="M38.775 38.3306H34.4382V42.8383H38.775V38.3306Z" fill="white"/>
<path d="M51.7815 47.3384H47.4447V60.9384C47.3522 63.3422 45.4207 65.3884 43.0932 65.3884C40.7657 65.3884 39.0562 63.6576 38.8046 61.4268L38.7861 47.3384H34.4494L34.4309 61.2153C34.2051 63.4961 32.3365 65.3884 30.0978 65.3884C27.8592 65.3884 26.0608 63.6576 25.8092 61.4268V30.1807L39.552 15.896L36.5141 12.6807L21.4059 28.3845L21.4503 61.7999C21.9202 66.346 25.6168 69.8499 30.1126 69.8499C32.688 69.8499 35.0044 68.6884 36.6029 66.8422C38.1977 68.6922 40.5215 69.8499 43.108 69.8499C47.5928 69.8499 51.2893 66.3307 51.7741 61.7999L51.7815 47.3345V47.3384Z" fill="white"/>
<path d="M51.7814 15.8077L51.7925 15.7962L36.6066 0L36.5918 0.0153846L36.577 0L21.6945 15.4808L21.4169 15.7692L21.4687 22.0885L36.5918 6.40769L51.7148 22.0885L51.7666 15.8192L51.7925 15.8077H51.7814Z" fill="white"/>
</g>
<defs>
<clipPath id="clip0_81_1075">
<rect width="52" height="85" fill="white"/>
</clipPath>
</defs>
</svg>
