<svg width="133" height="108" viewBox="0 0 133 108" fill="none" xmlns="http://www.w3.org/2000/svg">
<path d="M123.323 56.1878C123.341 62.9741 122.019 69.6971 119.435 75.9716C116.851 82.246 113.056 87.9486 108.265 92.7524C103.625 97.4484 98.0947 101.171 91.9991 103.704C85.9036 106.236 79.3647 107.526 72.7648 107.5C59.0034 107.5 46.4381 101.843 37.2642 92.7524C32.4738 87.9484 28.6779 82.2457 26.094 75.971C23.51 69.6963 22.1889 62.973 22.2062 56.1865C22.2062 27.8032 44.8428 4.87256 72.7648 4.87256C100.687 4.87256 123.323 27.9045 123.323 56.1878Z" fill="#F1F3F9"/>
<path d="M72.765 4.55908C100.864 4.55908 123.637 27.7354 123.637 56.187L123.635 56.8272C123.57 63.4371 122.244 69.9758 119.726 76.0911C117.126 82.4032 113.307 88.1399 108.488 92.9728L108.489 92.9731C103.819 97.6987 98.2536 101.445 92.1195 103.993C85.9858 106.541 79.4061 107.84 72.765 107.813H72.7644L72.7638 107.814V107.813C58.9155 107.813 46.2726 102.121 37.0439 92.9755L37.0427 92.974C32.2232 88.1408 28.4041 82.4036 25.8045 76.0908C23.2048 69.7779 21.8758 63.0136 21.8932 56.1858C21.8937 27.6337 44.6663 4.5591 72.765 4.55908ZM72.765 5.18634C45.0201 5.18636 22.5201 27.9726 22.5201 56.1867V56.1873C22.5028 62.9326 23.816 69.6151 26.3842 75.8516C28.9521 82.0874 32.7241 87.7551 37.4846 92.5296H37.4849C46.6037 101.566 59.0912 107.186 72.765 107.187H72.7662C79.3245 107.213 85.8222 105.93 91.8792 103.414C97.9363 100.898 103.431 97.1984 108.043 92.5321L108.044 92.5311C112.805 87.7565 116.578 82.0885 119.146 75.8522C121.714 69.6159 123.027 62.9339 123.01 56.1889V56.188C123.01 28.0734 100.51 5.18634 72.765 5.18634Z" fill="#D6DCE8"/>
<path d="M124.193 21.5858C125.002 21.5858 125.792 21.346 126.464 20.8964C127.137 20.4469 127.661 19.8079 127.97 19.0604C128.28 18.3128 128.361 17.4901 128.203 16.6965C128.045 15.9029 127.656 15.1739 127.084 14.6017C126.512 14.0295 125.784 13.6399 124.991 13.482C124.198 13.3241 123.376 13.4051 122.629 13.7147C121.882 14.0243 121.243 14.5486 120.794 15.2214C120.344 15.8942 120.105 16.6851 120.104 17.4943C120.105 18.5792 120.536 19.6194 121.303 20.3865C122.069 21.1537 123.109 21.585 124.193 21.5858Z" fill="#F1F3F9"/>
<path d="M122.617 13.6854C123.369 13.3734 124.198 13.2917 124.997 13.4508C125.796 13.6099 126.53 14.0026 127.106 14.5791C127.682 15.1557 128.075 15.8903 128.234 16.69C128.393 17.4896 128.311 18.3186 127.999 19.0719C127.687 19.8252 127.159 20.4691 126.482 20.9221C125.846 21.3468 125.107 21.5858 124.345 21.614L124.193 21.6168C123.101 21.6159 122.053 21.1815 121.281 20.4085C120.508 19.6355 120.074 18.5871 120.073 17.494C120.073 16.6786 120.315 15.8815 120.768 15.2036C121.22 14.5257 121.864 13.9974 122.617 13.6854ZM120.137 17.5947C120.164 18.6348 120.588 19.6266 121.325 20.3641C122.086 21.1253 123.117 21.5534 124.193 21.5543C124.995 21.5543 125.78 21.3161 126.447 20.8701C127.114 20.424 127.634 19.7898 127.941 19.048C128.248 18.3062 128.329 17.4897 128.172 16.7022C128.016 15.9147 127.629 15.1913 127.062 14.6235C126.495 14.0557 125.772 13.6691 124.985 13.5124C124.198 13.3557 123.382 13.4361 122.641 13.7433C121.899 14.0505 121.266 14.5709 120.82 15.2385C120.374 15.9061 120.136 16.691 120.136 17.494L120.137 17.5947Z" fill="#A0A0A0"/>
<path d="M130.176 5.61952C130.729 5.61952 131.269 5.45564 131.728 5.14861C132.187 4.84159 132.545 4.4052 132.756 3.89464C132.967 3.38408 133.023 2.82225 132.915 2.28025C132.807 1.73825 132.541 1.24039 132.151 0.849629C131.76 0.458865 131.263 0.192742 130.721 0.0849307C130.18 -0.0228807 129.618 0.0324855 129.108 0.243965C128.598 0.455445 128.162 0.813568 127.855 1.27306C127.548 1.73255 127.384 2.27272 127.384 2.82535C127.385 3.56604 127.68 4.27609 128.203 4.79984C128.727 5.32359 129.436 5.61835 130.176 5.61952Z" fill="#F1F3F9"/>
<path d="M129.096 0.215072C129.612 0.00126053 130.18 -0.0547368 130.727 0.0542765C131.275 0.163317 131.778 0.432512 132.173 0.827627C132.568 1.22277 132.837 1.72611 132.946 2.27417C133.055 2.82223 132.999 3.39037 132.785 3.90663C132.571 4.4229 132.209 4.86415 131.745 5.17462C131.281 5.48508 130.735 5.65087 130.177 5.65088C129.428 5.64971 128.71 5.35168 128.181 4.8221C127.652 4.29248 127.354 3.57445 127.353 2.82547C127.353 2.2667 127.518 1.72042 127.829 1.2558C128.139 0.791155 128.58 0.428926 129.096 0.215072ZM127.415 2.82547C127.417 3.55782 127.708 4.25984 128.226 4.77769C128.743 5.29553 129.445 5.58695 130.177 5.5881C130.723 5.58808 131.256 5.4261 131.71 5.12255C132.164 4.81898 132.518 4.38757 132.727 3.88274C132.936 3.37792 132.991 2.82234 132.884 2.28643C132.778 1.7505 132.515 1.25811 132.129 0.871731C131.743 0.48544 131.251 0.222448 130.715 0.115838C130.18 0.00924045 129.624 0.0638678 129.12 0.272958C128.616 0.482043 128.184 0.836146 127.881 1.29041C127.578 1.74474 127.415 2.27905 127.415 2.82547Z" fill="#A0A0A0"/>
<path d="M22.2688 22.4417C22.821 22.4417 23.3608 22.2778 23.82 21.9708C24.2792 21.6638 24.6371 21.2274 24.8484 20.7168C25.0598 20.2063 25.1151 19.6445 25.0073 19.1025C24.8996 18.5605 24.6336 18.0627 24.2431 17.6719C23.8526 17.2812 23.3551 17.015 22.8135 16.9072C22.2719 16.7994 21.7104 16.8547 21.2002 17.0662C20.69 17.2777 20.254 17.6358 19.9471 18.0953C19.6403 18.5548 19.4766 19.095 19.4766 19.6476C19.4777 20.3883 19.7723 21.0983 20.2957 21.622C20.8191 22.1458 21.5286 22.4406 22.2688 22.4417Z" fill="#F1F3F9"/>
<path d="M21.1884 17.0373C21.7043 16.8235 22.272 16.7675 22.8197 16.8765C23.3674 16.9856 23.8704 17.2548 24.2653 17.6499C24.6601 18.045 24.9291 18.5484 25.0381 19.0964C25.147 19.6445 25.0911 20.2126 24.8774 20.7289C24.6637 21.2452 24.3017 21.6864 23.8374 21.9969C23.3731 22.3073 22.8272 22.4731 22.2688 22.4731C21.5203 22.472 20.8028 22.1739 20.2735 21.6444C19.7443 21.1147 19.4465 20.3967 19.4453 19.6477C19.4453 19.0889 19.6107 18.5424 19.9209 18.0778C20.2312 17.6131 20.6724 17.2512 21.1884 17.0373ZM19.5078 19.6477C19.5089 20.3801 19.8004 21.0821 20.3179 21.6C20.8354 22.1178 21.5369 22.4092 22.2688 22.4104C22.8148 22.4104 23.3485 22.2484 23.8025 21.9448C24.2565 21.6413 24.6106 21.2098 24.8196 20.705C25.0285 20.2002 25.0831 19.6446 24.9766 19.1087C24.87 18.5728 24.607 18.0804 24.2209 17.694C23.8348 17.3077 23.3429 17.0447 22.8075 16.9381C22.2719 16.8315 21.7167 16.8861 21.2122 17.0952C20.7078 17.3043 20.2766 17.6584 19.9733 18.1127C19.6699 18.567 19.5078 19.1013 19.5078 19.6477Z" fill="#A0A0A0"/>
<path d="M5.21668 76.9731C6.24226 76.9731 7.24481 76.6688 8.09754 76.0986C8.95028 75.5285 9.61491 74.7181 10.0074 73.7699C10.3999 72.8218 10.5025 71.7784 10.3025 70.7719C10.1024 69.7653 9.60851 68.8408 8.88332 68.1151C8.15812 67.3894 7.23417 66.8951 6.22829 66.6949C5.22242 66.4947 4.17981 66.5974 3.2323 66.9902C2.28478 67.3829 1.47493 68.048 0.905149 68.9014C0.335368 69.7547 0.03125 70.7579 0.03125 71.7842C0.0314993 73.1603 0.5779 74.48 1.5503 75.4531C2.5227 76.4262 3.8415 76.9729 5.21668 76.9731Z" fill="#F1F3F9"/>
<path d="M3.22014 66.9613C4.17335 66.5662 5.22237 66.4629 6.23429 66.6643C7.24622 66.8657 8.17577 67.363 8.90534 68.093C9.63492 68.8231 10.1319 69.7533 10.3331 70.7659C10.5344 71.7786 10.4311 72.8283 10.0363 73.7821C9.64143 74.736 8.97289 75.5513 8.11507 76.1249C7.25718 76.6985 6.24839 77.0045 5.21661 77.0045C3.83313 77.0042 2.50647 76.4542 1.5282 75.4752C0.549937 74.4963 0.000250791 73.1687 0 71.7843C4.25433e-06 70.7518 0.30584 69.7426 0.879026 68.8842C1.45223 68.0257 2.26695 67.3565 3.22014 66.9613ZM0.0624378 71.7843C0.0626856 73.1521 0.60605 74.464 1.57257 75.4311C2.53908 76.3982 3.84982 76.9417 5.21661 76.942C6.236 76.942 7.2326 76.6395 8.08018 76.0728C8.92776 75.5061 9.58832 74.7004 9.97841 73.7579C10.3685 72.8156 10.4705 71.7786 10.2716 70.7782C10.0728 69.7777 9.58202 68.8587 8.86127 68.1374C8.14046 67.4161 7.22184 66.9248 6.22205 66.7258C5.22231 66.5268 4.18605 66.6289 3.24432 67.0192C2.30255 67.4096 1.49739 68.0706 0.931057 68.9188C0.364724 69.7669 0.062442 70.7642 0.0624378 71.7843Z" fill="#A0A0A0"/>
<path d="M117.957 27.156V82.4392C117.96 82.9801 117.857 83.5164 117.652 84.0172C117.448 84.518 117.147 84.9734 116.766 85.3574C116.385 85.7413 115.932 86.0461 115.433 86.2543C114.935 86.4625 114.4 86.5701 113.859 86.5707H30.6371C29.544 86.5653 28.4972 86.1282 27.7245 85.3545C26.9517 84.5808 26.5155 83.5331 26.5107 82.4392V27.156C26.5108 26.6141 26.6176 26.0776 26.8251 25.5771C27.0326 25.0766 27.3366 24.6219 27.7199 24.2391C28.1032 23.8563 28.5581 23.5528 29.0587 23.3462C29.5592 23.1395 30.0956 23.0337 30.6371 23.0347H113.859C114.948 23.0387 115.991 23.4748 116.759 24.2475C117.528 25.0201 117.958 26.0661 117.957 27.156Z" fill="white"/>
<path d="M113.86 22.7212C115.032 22.7255 116.155 23.195 116.981 24.0265C117.808 24.8579 118.272 25.9833 118.27 27.1561V82.4373L118.269 82.5463C118.259 83.0915 118.149 83.6305 117.943 84.1359C117.723 84.675 117.398 85.1652 116.989 85.5785C116.579 85.9918 116.091 86.3198 115.554 86.5439C115.017 86.768 114.441 86.8838 113.859 86.8845H30.6356C29.4598 86.8787 28.3338 86.4085 27.5026 85.5764C26.6715 84.7442 26.2024 83.6172 26.1973 82.4407V27.1561C26.1973 26.573 26.3122 25.9957 26.5355 25.4572C26.7587 24.9186 27.086 24.4293 27.4984 24.0174C27.9108 23.6054 28.4003 23.2787 28.939 23.0563C29.4775 22.8339 30.0546 22.7205 30.6371 22.7215V22.7212H113.86ZM26.8241 82.4379L26.8296 82.6272C26.8802 83.5694 27.2765 84.4624 27.9461 85.1329C28.6605 85.8481 29.6281 86.2522 30.6386 86.2572H113.859C114.358 86.2566 114.852 86.1573 115.313 85.965C115.774 85.7727 116.192 85.4911 116.544 85.1365C116.895 84.782 117.174 84.3614 117.362 83.8989C117.551 83.4363 117.646 82.9409 117.643 82.4413V27.1558C117.645 26.1489 117.247 25.1826 116.537 24.4688C115.827 23.7551 114.864 23.3521 113.858 23.3484H30.6365C30.1361 23.3475 29.6405 23.4454 29.1781 23.6363C28.7157 23.8273 28.2953 24.1075 27.9412 24.4612C27.5872 24.8148 27.3062 25.2349 27.1145 25.6973C26.9229 26.1597 26.8241 26.6555 26.8241 27.1561V82.4379Z" fill="#D6DCE8"/>
<path d="M117.957 26.7971V32.9838H26.5107V26.7971C26.5108 26.2553 26.6176 25.7187 26.8251 25.2182C27.0326 24.7177 27.3366 24.263 27.7199 23.8802C28.1032 23.4974 28.5581 23.1939 29.0587 22.9873C29.5592 22.7806 30.0956 22.6748 30.6371 22.6758H113.859C114.948 22.6798 115.991 23.1159 116.759 23.8886C117.528 24.6612 117.958 25.7072 117.957 26.7971Z" fill="#D6DCE8"/>
<path d="M31.0859 29.3849C31.3931 29.3863 31.6938 29.2963 31.9498 29.1264C32.2059 28.9565 32.4057 28.7144 32.524 28.4306C32.6423 28.1469 32.6737 27.8344 32.6142 27.5328C32.5547 27.2312 32.4071 26.954 32.19 26.7365C31.9729 26.5189 31.6961 26.3708 31.3948 26.311C31.0934 26.2511 30.7811 26.2821 30.4974 26.4002C30.2137 26.5182 29.9715 26.7179 29.8014 26.9739C29.6313 27.2299 29.541 27.5307 29.542 27.8381C29.5415 28.0412 29.5811 28.2425 29.6585 28.4302C29.7359 28.618 29.8495 28.7886 29.993 28.9323C30.1364 29.076 30.3068 29.19 30.4943 29.2677C30.6819 29.3454 30.8829 29.3852 31.0859 29.3849Z" fill="#AAB2C5"/>
<path d="M36.193 29.3849C36.5002 29.3863 36.8009 29.2964 37.057 29.1265C37.3131 28.9567 37.513 28.7145 37.6313 28.4307C37.7496 28.147 37.7811 27.8345 37.7217 27.5329C37.6622 27.2312 37.5146 26.9541 37.2975 26.7366C37.0804 26.519 36.8036 26.3709 36.5023 26.311C36.201 26.2511 35.8886 26.2821 35.6049 26.4001C35.3212 26.5181 35.079 26.7178 34.9088 26.9738C34.7387 27.2298 34.6484 27.5306 34.6494 27.8381C34.649 28.0412 34.6886 28.2423 34.7659 28.43C34.8433 28.6178 34.957 28.7883 35.1004 28.932C35.2438 29.0757 35.4141 29.1897 35.6016 29.2674C35.7891 29.3451 35.99 29.385 36.193 29.3849Z" fill="#AAB2C5"/>
<path d="M41.2706 29.3849C41.5778 29.3863 41.8786 29.2964 42.1346 29.1265C42.3907 28.9567 42.5906 28.7145 42.7089 28.4307C42.8273 28.147 42.8587 27.8345 42.7993 27.5329C42.7399 27.2312 42.5922 26.9541 42.3752 26.7366C42.1581 26.519 41.8813 26.3709 41.5799 26.311C41.2786 26.2511 40.9663 26.2821 40.6826 26.4001C40.3989 26.5181 40.1566 26.7178 39.9865 26.9738C39.8164 27.2298 39.7261 27.5306 39.7271 27.8381C39.7266 28.0412 39.7662 28.2423 39.8436 28.43C39.921 28.6178 40.0346 28.7883 40.178 28.932C40.3214 29.0757 40.4917 29.1897 40.6792 29.2674C40.8667 29.3451 41.0677 29.385 41.2706 29.3849Z" fill="#AAB2C5"/>
<path d="M98.1969 70.853C98.3699 70.8531 98.5103 70.9935 98.5103 71.1667C98.5103 71.3398 98.3699 71.4802 98.1969 71.4803H44.9326C44.7595 71.4803 44.6191 71.3399 44.6191 71.1667C44.6191 70.9934 44.7595 70.853 44.9326 70.853H98.1969Z" fill="#D5DDEA"/>
<path d="M89.7773 76.6274C89.9504 76.6274 90.0907 76.7679 90.0907 76.9411C90.0907 77.1143 89.9504 77.2547 89.7773 77.2547H53.3173C53.1442 77.2547 53.0039 77.1143 53.0039 76.9411C53.0039 76.7679 53.1442 76.6274 53.3173 76.6274H89.7773Z" fill="#D5DDEA"/>
<path d="M113.913 99.3677L94.0229 79.48L98.5815 74.9204L118.457 94.8183L113.913 99.3677Z" fill="#D6DCE8"/>
<path d="M118.9 94.8185L113.913 99.8114L93.5796 79.4801L98.5817 74.4771L118.9 94.8185ZM94.4663 79.4798L113.913 98.9241L118.014 94.8185L98.5813 75.3637L94.4663 79.4798Z" fill="#AAB2C5"/>
<path d="M120.828 106.364L105.576 91.1063C104.969 90.4914 104.629 89.6612 104.632 88.7969C104.634 87.9327 104.978 87.1045 105.589 86.4931C106.199 85.8818 107.027 85.5369 107.89 85.5337C108.754 85.5305 109.584 85.8693 110.199 86.4761L125.451 101.744C125.757 102.047 126 102.407 126.167 102.805C126.333 103.202 126.419 103.629 126.42 104.06C126.421 104.491 126.337 104.918 126.172 105.316C126.008 105.714 125.766 106.076 125.462 106.381C125.157 106.685 124.795 106.926 124.397 107.091C123.999 107.255 123.572 107.338 123.141 107.337C122.711 107.335 122.285 107.248 121.887 107.081C121.49 106.915 121.13 106.671 120.828 106.364Z" fill="#D6DCE8"/>
<path d="M107.889 85.2202C108.776 85.217 109.631 85.543 110.29 86.1317L110.419 86.253L110.42 86.2545L125.671 101.521L125.794 101.648C126.072 101.952 126.296 102.303 126.456 102.684C126.638 103.12 126.732 103.587 126.734 104.059C126.735 104.532 126.642 105 126.462 105.436C126.282 105.873 126.017 106.269 125.683 106.603C125.349 106.936 124.953 107.201 124.516 107.381C124.08 107.56 123.612 107.652 123.14 107.65C122.668 107.649 122.201 107.554 121.766 107.371C121.332 107.188 120.937 106.921 120.606 106.586L105.354 91.3283L105.353 91.3268C104.688 90.653 104.316 89.7434 104.318 88.7963C104.321 87.8493 104.698 86.9416 105.367 86.2717C106.036 85.6017 106.943 85.2238 107.889 85.2202ZM107.891 85.8475C107.111 85.8504 106.362 86.1621 105.81 86.7149C105.258 87.2677 104.947 88.0167 104.945 88.7982C104.943 89.5788 105.249 90.3288 105.797 90.8845L121.051 106.144C121.324 106.421 121.65 106.642 122.009 106.793C122.368 106.943 122.753 107.022 123.142 107.023C123.532 107.025 123.918 106.949 124.278 106.801C124.638 106.652 124.965 106.434 125.24 106.159C125.516 105.884 125.734 105.557 125.883 105.197C126.031 104.837 126.108 104.45 126.107 104.061C126.106 103.671 126.028 103.286 125.877 102.926C125.727 102.567 125.507 102.241 125.23 101.967L125.229 101.966L109.978 86.6996C109.422 86.1509 108.672 85.8446 107.891 85.8475Z" fill="#AAB2C5"/>
<path d="M119.743 107.342L100.12 87.7035C99.9004 87.4817 99.7773 87.1823 99.7773 86.8702C99.7773 86.5582 99.9004 86.2587 100.12 86.0369L105.134 81.0189C105.356 80.7982 105.655 80.6743 105.968 80.6743C106.28 80.6743 106.58 80.7982 106.801 81.0189L126.425 100.657C126.644 100.879 126.767 101.179 126.767 101.49C126.767 101.802 126.644 102.102 126.425 102.324L121.41 107.342C121.189 107.562 120.889 107.686 120.577 107.686C120.264 107.686 119.964 107.563 119.743 107.342Z" fill="#D6DCE8"/>
<path d="M99.4639 86.8705C99.4639 86.4758 99.6195 86.0971 99.897 85.8166L104.913 80.797C105.193 80.5178 105.572 80.3608 105.967 80.3608C106.338 80.3608 106.695 80.4986 106.968 80.7458L107.022 80.797L107.023 80.7973L126.646 100.436L126.648 100.437C126.925 100.718 127.08 101.096 127.08 101.491C127.08 101.885 126.925 102.264 126.648 102.544L121.631 107.564C121.351 107.843 120.972 108 120.577 108C120.181 108 119.802 107.843 119.522 107.564L119.521 107.564L99.897 87.9244C99.6195 87.6439 99.4639 87.2651 99.4639 86.8705ZM100.091 86.8705C100.091 87.0993 100.181 87.3189 100.341 87.4818L119.965 107.12C120.127 107.282 120.347 107.373 120.576 107.373C120.806 107.373 121.026 107.282 121.189 107.12L126.203 102.102C126.363 101.939 126.453 101.719 126.453 101.491C126.453 101.262 126.363 101.042 126.203 100.879L106.579 81.2408C106.417 81.0791 106.197 80.9881 105.967 80.9881C105.738 80.9881 105.518 81.0791 105.356 81.2411L100.341 86.2588C100.181 86.4218 100.091 86.6415 100.091 86.8705Z" fill="#AAB2C5"/>
<path d="M70.8549 14.1548C63.3998 14.1518 56.1113 16.3614 49.9112 20.504C43.7111 24.6466 38.878 30.5362 36.0232 37.4278C33.1684 44.3194 32.4202 51.9034 33.8731 59.2206C35.3261 66.5378 38.915 73.2594 44.1859 78.5353C49.4567 83.8112 56.1728 87.4044 63.4846 88.8603C70.7964 90.3162 78.3754 89.5694 85.2631 86.7145C92.1507 83.8596 98.0375 79.0248 102.179 72.8215C106.32 66.6183 108.53 59.3254 108.529 51.8651C108.529 41.8657 104.56 32.2758 97.4947 25.2041C90.4298 18.1325 80.8475 14.1581 70.8549 14.1548ZM70.8549 82.6C54.1397 82.6 40.6015 68.8292 40.6015 51.8547C40.6015 34.8708 54.1409 21.1192 70.8549 21.1192C87.569 21.1192 101.108 34.8899 101.108 51.8641C101.108 68.849 87.5533 82.6 70.8549 82.6Z" fill="#D6DCE8"/>
<path d="M108.216 51.8648C108.215 41.9486 104.279 32.4383 97.273 25.4255C90.2669 18.4127 80.7643 14.4714 70.8548 14.4681C63.4617 14.4651 56.2336 16.6564 50.085 20.7645C43.9366 24.8727 39.1437 30.7133 36.3126 37.5476C33.4816 44.3819 32.7397 51.9028 34.1806 59.1592C35.6214 66.4155 39.1805 73.0811 44.4075 78.3131C49.6345 83.5451 56.2947 87.1085 63.5456 88.5523C70.7966 89.9961 78.3126 89.2554 85.1429 86.4243C91.9733 83.5931 97.8112 78.7986 101.918 72.647C106.025 66.4953 108.217 59.263 108.216 51.8648ZM40.2881 51.8544C40.2881 34.7018 53.9633 20.8053 70.8548 20.8053C87.7465 20.8053 101.422 34.7212 101.422 51.8639C101.422 69.0176 87.7305 82.9134 70.8548 82.9134C53.9619 82.9134 40.2882 68.9974 40.2881 51.8544ZM108.843 51.8648C108.844 59.3871 106.615 66.7407 102.439 72.9955C98.2635 79.2503 92.3278 84.1254 85.3829 87.0041C78.438 89.8827 70.796 90.6356 63.4235 89.1676C56.0509 87.6996 49.279 84.0764 43.9643 78.7566C38.6496 73.4369 35.0307 66.6594 33.5657 59.2814C32.1006 51.9034 32.8551 44.2564 35.7335 37.3075C38.6121 30.3586 43.4854 24.42 49.737 20.2429C55.9887 16.0659 63.338 13.8378 70.8551 13.8408C80.9307 13.8442 90.5926 17.8516 97.7162 24.982C104.84 32.1124 108.842 41.7822 108.843 51.8648ZM40.915 51.8544C40.915 68.6603 54.3173 82.2861 70.8548 82.2862C87.3757 82.2862 100.795 68.6798 100.795 51.8639C100.795 35.0583 87.3911 21.4325 70.8548 21.4325C54.3183 21.4326 40.915 35.0393 40.915 51.8544Z" fill="#AAB2C5"/>
<path d="M60.5453 52.6199C61.2612 52.6203 61.9611 52.4082 62.5564 52.0105C63.1518 51.6128 63.616 51.0473 63.8902 50.3856C64.1644 49.7239 64.2363 48.9957 64.0969 48.2931C63.9575 47.5904 63.6129 46.945 63.1069 46.4383C62.6008 45.9317 61.956 45.5866 61.2539 45.4467C60.5519 45.3068 59.8241 45.3784 59.1627 45.6525C58.5013 45.9265 57.936 46.3907 57.5383 46.9863C57.1405 47.5818 56.9282 48.2821 56.9282 48.9984C56.9279 49.4739 57.0213 49.9448 57.2029 50.3842C57.3846 50.8236 57.651 51.2228 57.9869 51.5592C58.3228 51.8955 58.7217 52.1623 59.1606 52.3443C59.5996 52.5263 60.0702 52.6199 60.5453 52.6199Z" fill="#AAB2C5"/>
<path d="M81.0414 52.6199C81.7573 52.6203 82.4571 52.4082 83.0525 52.0105C83.6479 51.6128 84.1121 51.0473 84.3863 50.3856C84.6605 49.7239 84.7324 48.9957 84.593 48.2931C84.4535 47.5904 84.109 46.945 83.603 46.4383C83.0969 45.9317 82.4521 45.5866 81.75 45.4467C81.048 45.3068 80.3202 45.3784 79.6588 45.6525C78.9974 45.9265 78.4321 46.3907 78.0344 46.9863C77.6366 47.5818 77.4243 48.2821 77.4243 48.9984C77.4241 49.4739 77.5175 49.9447 77.6992 50.3841C77.8809 50.8234 78.1473 51.2227 78.4832 51.559C78.8191 51.8953 79.2179 52.1621 79.6568 52.3441C80.0958 52.5261 80.5663 52.6198 81.0414 52.6199Z" fill="#AAB2C5"/>
<path d="M75.3422 64.1515C75.1707 64.1592 75 64.123 74.8464 64.0461C74.6928 63.9693 74.5614 63.8544 74.4647 63.7125C74.0421 63.1214 73.4818 62.6425 72.8325 62.317C72.1831 61.9916 71.4643 61.8295 70.7382 61.8448C70.0276 61.8304 69.3246 61.9936 68.693 62.3197C68.0614 62.6459 67.5211 63.1246 67.1211 63.7125C66.9455 63.9451 66.6848 64.0985 66.3963 64.1388C66.1077 64.179 65.815 64.103 65.5825 63.9273C65.35 63.7516 65.1968 63.4907 65.1565 63.202C65.1163 62.9133 65.1923 62.6203 65.3678 62.3877C65.986 61.5078 66.8065 60.7895 67.7603 60.2936C68.7141 59.7976 69.773 59.5385 70.8479 59.5381C71.9204 59.551 72.9749 59.8155 73.9267 60.3104C74.8785 60.8053 75.7009 61.5168 76.3279 62.3877C76.4874 62.627 76.5533 62.9167 76.5128 63.2015C76.4723 63.4862 76.3284 63.7461 76.1085 63.9314C75.8863 64.0914 75.6154 64.1693 75.3422 64.1515Z" fill="#AAB2C5"/>
</svg>
