<svg width="14" height="14" viewBox="0 0 14 14" fill="none" xmlns="http://www.w3.org/2000/svg">
<path d="M5.34346 6.34079C5.27943 6.33495 5.215 6.33495 5.15096 6.34079C4.47208 6.31557 3.83022 6.02492 3.36341 5.53136C2.8966 5.0378 2.64213 4.38075 2.65474 3.70152C2.66736 3.02229 2.94603 2.37514 3.43084 1.89925C3.91565 1.42335 4.56787 1.15674 5.24721 1.15674C5.92656 1.15674 6.57878 1.42335 7.06359 1.89925C7.5484 2.37514 7.82707 3.02229 7.83969 3.70152C7.8523 4.38075 7.59783 5.0378 7.13102 5.53136C6.66421 6.02492 6.02234 6.31557 5.34346 6.34079Z" stroke="#292D32" stroke-linecap="round" stroke-linejoin="round"/>
<path d="M9.5729 2.3335C10.1144 2.3335 10.6337 2.5486 11.0166 2.93149C11.3995 3.31437 11.6146 3.83368 11.6146 4.37516C11.6149 4.90376 11.4103 5.4119 11.0436 5.79268C10.677 6.17346 10.177 6.3972 9.64874 6.41683C9.59835 6.41099 9.54746 6.41099 9.49707 6.41683" stroke="#292D32" stroke-linecap="round" stroke-linejoin="round"/>
<path d="M2.42691 8.49398C1.01525 9.43898 1.01525 10.979 2.42691 11.9181C3.30965 12.445 4.3185 12.7232 5.3465 12.7232C6.3745 12.7232 7.38334 12.445 8.26608 11.9181C9.67775 10.9731 9.67775 9.43315 8.26608 8.49398C7.38238 7.96991 6.37391 7.69336 5.3465 7.69336C4.31908 7.69336 3.31061 7.96991 2.42691 8.49398Z" stroke="#292D32" stroke-linecap="round" stroke-linejoin="round"/>
<path d="M10.6982 11.6665C11.1125 11.585 11.5032 11.4116 11.8416 11.159C12.0508 11.0254 12.223 10.8413 12.3423 10.6237C12.4615 10.406 12.5241 10.1618 12.5241 9.91359C12.5241 9.66538 12.4615 9.42118 12.3423 9.20351C12.223 8.98584 12.0508 8.80173 11.8416 8.66817C11.5066 8.42223 11.1226 8.25115 10.7157 8.1665" stroke="#292D32" stroke-linecap="round" stroke-linejoin="round"/>
</svg>
