<svg width="14" height="14" viewBox="0 0 14 14" fill="none" xmlns="http://www.w3.org/2000/svg">
<g clip-path="url(#clip0_81_3525)">
<path d="M12.8162 10.6923C12.8154 10.9125 12.7655 11.1297 12.6704 11.3282C12.5685 11.5452 12.4348 11.7457 12.2737 11.9232C12.011 12.2221 11.6839 12.4574 11.3171 12.6115C10.9564 12.7604 10.5697 12.8358 10.1796 12.8332C9.52342 12.821 8.87654 12.6762 8.27789 12.4073C7.56751 12.0994 6.89432 11.7119 6.27122 11.2523C5.59345 10.7566 4.95388 10.2106 4.35789 9.61901C3.768 9.02519 3.22395 8.38753 2.73039 7.71151C2.27708 7.09266 1.89364 6.42554 1.58706 5.72235C1.32081 5.12103 1.17799 4.47238 1.16706 3.81485C1.16455 3.4296 1.23583 3.04744 1.37706 2.68901C1.52542 2.31844 1.7546 1.98563 2.04789 1.71485C2.20316 1.54692 2.39055 1.41186 2.59897 1.31767C2.80738 1.22348 3.03258 1.17208 3.26122 1.16651C3.42458 1.16587 3.58602 1.20174 3.73372 1.27151C3.89129 1.34283 4.02641 1.45577 4.12456 1.59818L5.47789 3.50568C5.57149 3.63212 5.64981 3.76918 5.71122 3.91401C5.76188 4.026 5.78965 4.14698 5.79289 4.26985C5.79124 4.41659 5.74882 4.55998 5.67039 4.68401C5.58043 4.836 5.47057 4.97528 5.34372 5.09818L4.90039 5.55901C4.86951 5.58931 4.84527 5.6257 4.8292 5.66587C4.81313 5.70604 4.80559 5.74911 4.80706 5.79235C4.80713 5.83763 4.81301 5.88272 4.82456 5.92651C4.84206 5.97318 4.85956 6.00818 4.87122 6.04318C5.02787 6.30878 5.20953 6.5588 5.41372 6.78985C5.67622 7.09318 5.95622 7.40235 6.25956 7.71151C6.57456 8.02068 6.87789 8.30651 7.18706 8.56901C7.4187 8.77338 7.67088 8.95323 7.93956 9.10568C7.96872 9.11735 8.00372 9.13485 8.04456 9.15235C8.09131 9.16905 8.14076 9.17696 8.19039 9.17568C8.23496 9.17667 8.27924 9.16837 8.32042 9.15129C8.3616 9.13422 8.39877 9.10875 8.42956 9.07651L8.87289 8.63901C8.99583 8.5098 9.13739 8.3997 9.29289 8.31235C9.41659 8.23319 9.5602 8.19072 9.70706 8.18985C9.82949 8.19154 9.9504 8.2173 10.0629 8.26568C10.2065 8.32717 10.3434 8.40341 10.4712 8.49318L12.4021 9.86401C12.5422 9.95561 12.6534 10.0851 12.7229 10.2373C12.7834 10.3815 12.8151 10.536 12.8162 10.6923Z" stroke="#292D32"/>
</g>
<defs>
<clipPath id="clip0_81_3525">
<rect width="14" height="14" fill="white"/>
</clipPath>
</defs>
</svg>
