<svg width="18" height="18" viewBox="0 0 18 18" fill="none" xmlns="http://www.w3.org/2000/svg">
<path d="M5.4375 5.25H12.5625V3.75C12.5625 2.25 12 1.5 10.3125 1.5H7.6875C6 1.5 5.4375 2.25 5.4375 3.75V5.25Z" stroke="white" stroke-linecap="round" stroke-linejoin="round"/>
<path d="M12.0004 11.25V14.25C12.044 14.5556 12.0159 14.8672 11.9182 15.1601C11.8206 15.453 11.6561 15.7191 11.4378 15.9374C11.2195 16.1557 10.9534 16.3202 10.6605 16.4178C10.3676 16.5155 10.056 16.5436 9.75041 16.5H8.25041C7.94478 16.5436 7.6332 16.5155 7.34033 16.4178C7.04745 16.3202 6.78133 16.1557 6.56303 15.9374C6.34473 15.7191 6.18025 15.453 6.08259 15.1601C5.98494 14.8672 5.9568 14.5556 6.00041 14.25V11.25H12.0004Z" stroke="white" stroke-linecap="round" stroke-linejoin="round"/>
<path d="M15.7504 7.49992V11.2499C15.794 11.5556 15.7659 11.8671 15.6682 12.16C15.5706 12.4529 15.4061 12.719 15.1878 12.9373C14.9695 13.1556 14.7034 13.3201 14.4105 13.4177C14.1176 13.5154 13.806 13.5435 13.5004 13.4999H12.0004V11.2499H6.00041V13.4999H4.50041C4.19478 13.5435 3.8832 13.5154 3.59033 13.4177C3.29745 13.3201 3.03133 13.1556 2.81303 12.9373C2.59473 12.719 2.43025 12.4529 2.33259 12.16C2.23494 11.8671 2.2068 11.5556 2.25041 11.2499V7.49992C2.2068 7.19429 2.23494 6.88271 2.33259 6.58984C2.43025 6.29697 2.59473 6.03085 2.81303 5.81255C3.03133 5.59424 3.29745 5.42976 3.59033 5.3321C3.8832 5.23445 4.19478 5.20632 4.50041 5.24992H13.5004C13.806 5.20632 14.1176 5.23445 14.4105 5.3321C14.7034 5.42976 14.9695 5.59424 15.1878 5.81255C15.4061 6.03085 15.5706 6.29697 15.6682 6.58984C15.7659 6.88271 15.794 7.19429 15.7504 7.49992Z" stroke="white" stroke-linecap="round" stroke-linejoin="round"/>
<path d="M12.75 11.25H5.25" stroke="white" stroke-linecap="round" stroke-linejoin="round"/>
<path d="M5.25 8.25H7.5" stroke="white" stroke-linecap="round" stroke-linejoin="round"/>
</svg>
