<svg width="18" height="18" viewBox="0 0 18 18" fill="none" xmlns="http://www.w3.org/2000/svg">
<path d="M12.75 5.25C12.75 5.99168 12.5301 6.7167 12.118 7.33339C11.706 7.95007 11.1203 8.43072 10.4351 8.71455C9.74984 8.99838 8.99584 9.07264 8.26841 8.92795C7.54098 8.78325 6.8728 8.4261 6.34835 7.90165C5.8239 7.3772 5.46675 6.70902 5.32206 5.98159C5.17736 5.25416 5.25162 4.50016 5.53545 3.81494C5.81928 3.12971 6.29993 2.54404 6.91661 2.13199C7.5333 1.71993 8.25832 1.5 9 1.5C9.99456 1.5 10.9484 1.89509 11.6517 2.59835C12.3549 3.30161 12.75 4.25544 12.75 5.25Z" stroke="white" stroke-linecap="round" stroke-linejoin="round"/>
<path d="M14.4076 11.8052L11.7534 14.4602C11.6394 14.5844 11.5616 14.7374 11.5284 14.9027L11.3859 15.9152C11.368 15.9937 11.3704 16.0754 11.3927 16.1528C11.415 16.2302 11.4566 16.3006 11.5135 16.3575C11.5704 16.4145 11.6409 16.456 11.7182 16.4783C11.7956 16.5007 11.8774 16.503 11.9559 16.4852L12.9684 16.3427C13.1342 16.3111 13.2876 16.233 13.4109 16.1177L16.0659 13.4627C16.1983 13.3679 16.3061 13.243 16.3806 13.0982C16.455 12.9534 16.4938 12.793 16.4938 12.6302C16.4938 12.4674 16.455 12.3069 16.3806 12.1621C16.3061 12.0174 16.1983 11.8924 16.0659 11.7977C15.9709 11.6663 15.8459 11.5595 15.7014 11.4861C15.5569 11.4127 15.3969 11.3748 15.2348 11.3755C15.0727 11.3762 14.9131 11.4156 14.7693 11.4903C14.6254 11.565 14.5014 11.673 14.4076 11.8052Z" stroke="white" stroke-linecap="round" stroke-linejoin="round"/>
<path d="M14.0249 12.1875C14.135 12.5852 14.3462 12.9476 14.638 13.2394C14.9298 13.5312 15.2922 13.7424 15.6899 13.8525" stroke="white" stroke-linecap="round" stroke-linejoin="round"/>
<path d="M2.55762 16.5C2.55762 13.5975 5.44512 11.25 9.00012 11.25C9.75438 11.2482 10.5048 11.3569 11.2276 11.5725" stroke="white" stroke-linecap="round" stroke-linejoin="round"/>
</svg>
