<svg width="18" height="18" viewBox="0 0 18 18" fill="none" xmlns="http://www.w3.org/2000/svg">
<g clip-path="url(#clip0_66_849)">
<path d="M10.7028 8.19002C10.7028 8.60684 10.5792 9.01431 10.3476 9.36088C10.116 9.70746 9.78689 9.97758 9.4018 10.1371C9.0167 10.2966 8.59296 10.3383 8.18414 10.257C7.77533 10.1757 7.39981 9.97499 7.10507 9.68025C6.81033 9.38551 6.60961 9.00999 6.52829 8.60117C6.44697 8.19236 6.48871 7.76861 6.64822 7.38351C6.80773 6.99842 7.07785 6.66927 7.42443 6.4377C7.77101 6.20612 8.17847 6.08252 8.59529 6.08252C9.15424 6.08252 9.69029 6.30456 10.0855 6.69979C10.4808 7.09502 10.7028 7.63108 10.7028 8.19002Z" stroke="white" stroke-linecap="round" stroke-linejoin="round"/>
<path d="M12.4876 15.15C12.4876 13.4025 10.7476 11.9775 8.59514 11.9775C6.44264 11.9775 4.70264 13.395 4.70264 15.15" stroke="white" stroke-linecap="round" stroke-linejoin="round"/>
<path d="M15.7499 9.37503C15.7451 10.8994 15.2499 12.3817 14.3377 13.603C13.4254 14.8243 12.1444 15.7196 10.6841 16.1567C9.22371 16.5939 7.66147 16.5495 6.22825 16.0303C4.79503 15.5111 3.56688 14.5445 2.72534 13.2735C1.88379 12.0025 1.4735 10.4944 1.55511 8.97226C1.63672 7.45008 2.2059 5.99454 3.17852 4.82078C4.15113 3.64702 5.47558 2.81732 6.9561 2.45432C8.43662 2.09132 9.99464 2.21428 11.3999 2.80503C11.3003 3.11014 11.2497 3.42908 11.2499 3.75003C11.2488 4.2954 11.3994 4.83033 11.6849 5.29503C11.8368 5.55181 12.0293 5.78229 12.2549 5.97753C12.7993 6.47636 13.5115 6.75212 14.2499 6.75003C14.5691 6.75205 14.8863 6.69877 15.1874 6.59253C15.5584 7.4733 15.7496 8.41932 15.7499 9.37503Z" stroke="white" stroke-linecap="round" stroke-linejoin="round"/>
<path d="M17.25 3.75003C17.2506 3.98546 17.2203 4.21995 17.16 4.44753C17.0922 4.74703 16.9757 5.03335 16.815 5.29503C16.4499 5.91245 15.8707 6.3742 15.1875 6.59253C14.8864 6.69877 14.5693 6.75205 14.25 6.75003C13.5116 6.75212 12.7994 6.47636 12.255 5.97753C12.0294 5.78229 11.8369 5.55181 11.685 5.29503C11.3995 4.83033 11.2489 4.2954 11.25 3.75003C11.2498 3.42908 11.3004 3.11014 11.4 2.80503C11.5415 2.37412 11.7801 1.98151 12.0975 1.65753C12.3774 1.37 12.7121 1.14154 13.0818 0.985663C13.4515 0.829786 13.8488 0.749659 14.25 0.750026C14.6709 0.74825 15.0873 0.836313 15.4714 1.00833C15.8556 1.18035 16.1986 1.43236 16.4775 1.74753C16.9741 2.29631 17.2494 3.00989 17.25 3.75003Z" stroke="white" stroke-linecap="round" stroke-linejoin="round"/>
<path d="M15.3673 3.73535H13.1323" stroke="white" stroke-linecap="round" stroke-linejoin="round"/>
<path d="M14.25 2.64014V4.88264" stroke="white" stroke-linecap="round" stroke-linejoin="round"/>
</g>
<defs>
<clipPath id="clip0_66_849">
<rect width="18" height="18" fill="white"/>
</clipPath>
</defs>
</svg>
