<svg width="12" height="12" viewBox="0 0 12 12" fill="none" xmlns="http://www.w3.org/2000/svg">
<g clip-path="url(#clip0_113_5262)">
<path d="M7.5 6C7.5 6.29667 7.41203 6.58668 7.24721 6.83336C7.08238 7.08003 6.84812 7.27229 6.57403 7.38582C6.29994 7.49935 5.99834 7.52906 5.70737 7.47118C5.41639 7.4133 5.14912 7.27044 4.93934 7.06066C4.72956 6.85088 4.5867 6.58361 4.52882 6.29264C4.47094 6.00166 4.50065 5.70006 4.61418 5.42597C4.72771 5.15189 4.91997 4.91762 5.16665 4.7528C5.41332 4.58797 5.70333 4.5 6 4.5C6.39783 4.5 6.77936 4.65804 7.06066 4.93934C7.34197 5.22064 7.5 5.60218 7.5 6Z" stroke="#2F5DE9" stroke-linecap="round" stroke-linejoin="round"/>
<path d="M1 6.43994V5.55994C1.00079 5.30823 1.10113 5.06705 1.27912 4.88906C1.45711 4.71107 1.69829 4.61073 1.95 4.60994C2.855 4.60994 3.225 3.96994 2.77 3.18494C2.64507 2.96671 2.61176 2.70785 2.67737 2.46511C2.74298 2.22236 2.90215 2.01552 3.12 1.88994L3.985 1.39494C4.17602 1.2838 4.40332 1.25298 4.61703 1.30922C4.83075 1.36546 5.01343 1.50418 5.125 1.69494L5.18 1.78994C5.63 2.57494 6.37 2.57494 6.825 1.78994L6.88 1.69494C6.99157 1.50418 7.17425 1.36546 7.38797 1.30922C7.60168 1.25298 7.82898 1.2838 8.02 1.39494L8.885 1.88994C9.10285 2.01552 9.26202 2.22236 9.32763 2.46511C9.39324 2.70785 9.35993 2.96671 9.235 3.18494C8.78 3.96994 9.15 4.60994 10.055 4.60994C10.3067 4.61073 10.5479 4.71107 10.7259 4.88906C10.9039 5.06705 11.0042 5.30823 11.005 5.55994V6.43994C11.0042 6.69165 10.9039 6.93283 10.7259 7.11082C10.5479 7.2888 10.3067 7.38915 10.055 7.38994C9.15 7.38994 8.78 8.02994 9.235 8.81494C9.35993 9.03317 9.39324 9.29202 9.32763 9.53477C9.26202 9.77752 9.10285 9.98435 8.885 10.1099L8.02 10.6049C7.82898 10.7161 7.60168 10.7469 7.38797 10.6907C7.17425 10.6344 6.99157 10.4957 6.88 10.3049L6.825 10.2099C6.375 9.42494 5.635 9.42494 5.18 10.2099L5.125 10.3049C5.01343 10.4957 4.83075 10.6344 4.61703 10.6907C4.40332 10.7469 4.17602 10.7161 3.985 10.6049L3.12 10.1099C2.90215 9.98435 2.74298 9.77752 2.67737 9.53477C2.61176 9.29202 2.64507 9.03317 2.77 8.81494C3.225 8.02994 2.855 7.38994 1.95 7.38994C1.69829 7.38915 1.45711 7.2888 1.27912 7.11082C1.10113 6.93283 1.00079 6.69165 1 6.43994Z" stroke="#2F5DE9" stroke-linecap="round" stroke-linejoin="round"/>
</g>
<defs>
<clipPath id="clip0_113_5262">
<rect width="12" height="12" fill="white"/>
</clipPath>
</defs>
</svg>
