<svg width="32" height="32" viewBox="0 0 32 32" fill="none" xmlns="http://www.w3.org/2000/svg">
<path d="M22.6666 9.33317C22.6666 10.6517 22.2756 11.9406 21.5431 13.037C20.8105 14.1333 19.7693 14.9878 18.5511 15.4924C17.333 15.997 15.9925 16.129 14.6993 15.8717C13.4061 15.6145 12.2182 14.9796 11.2859 14.0472C10.3535 13.1149 9.71859 11.927 9.46135 10.6338C9.20412 9.34057 9.33614 8.00012 9.84072 6.78195C10.3453 5.56377 11.1998 4.52258 12.2961 3.79004C13.3924 3.0575 14.6814 2.6665 15.9999 2.6665C17.768 2.6665 19.4637 3.36888 20.714 4.61913C21.9642 5.86937 22.6666 7.56506 22.6666 9.33317Z" stroke="#292D32" stroke-width="1.5" stroke-linecap="round" stroke-linejoin="round"/>
<path d="M27.4533 29.3333C27.4533 24.1733 22.32 20 16 20C9.67996 20 4.54663 24.1733 4.54663 29.3333" stroke="#292D32" stroke-width="1.5" stroke-linecap="round" stroke-linejoin="round"/>
</svg>
