<svg width="18" height="18" viewBox="0 0 18 18" fill="none" xmlns="http://www.w3.org/2000/svg">
<g clip-path="url(#clip0_66_817)">
<path d="M6.8701 8.15251C6.78777 8.145 6.70493 8.145 6.6226 8.15251C5.74975 8.12009 4.92449 7.7464 4.32431 7.11182C3.72413 6.47725 3.39696 5.63247 3.41317 4.75917C3.42939 3.88587 3.78769 3.05382 4.41101 2.44196C5.03434 1.8301 5.8729 1.4873 6.74635 1.4873C7.6198 1.4873 8.45836 1.8301 9.08168 2.44196C9.70501 3.05382 10.0633 3.88587 10.0795 4.75917C10.0957 5.63247 9.76857 6.47725 9.16839 7.11182C8.5682 7.7464 7.74294 8.12009 6.8701 8.15251Z" stroke="white" stroke-linecap="round" stroke-linejoin="round"/>
<path d="M12.3075 3C13.0037 3 13.6713 3.27656 14.1636 3.76884C14.6559 4.26113 14.9325 4.92881 14.9325 5.625C14.9329 6.30463 14.6698 6.95794 14.1984 7.44752C13.727 7.93709 13.0841 8.22476 12.405 8.25C12.3402 8.24249 12.2747 8.24249 12.21 8.25" stroke="white" stroke-linecap="round" stroke-linejoin="round"/>
<path d="M3.12004 10.921C1.30504 12.136 1.30504 14.116 3.12004 15.3235C4.25499 16.0008 5.55207 16.3585 6.87379 16.3585C8.1955 16.3585 9.49259 16.0008 10.6275 15.3235C12.4425 14.1085 12.4425 12.1285 10.6275 10.921C9.49135 10.2472 8.19475 9.8916 6.87379 9.8916C5.55283 9.8916 4.25622 10.2472 3.12004 10.921Z" stroke="white" stroke-linecap="round" stroke-linejoin="round"/>
<path d="M13.7549 15C14.2875 14.8952 14.7899 14.6722 15.2249 14.3475C15.4939 14.1758 15.7152 13.9391 15.8686 13.6592C16.022 13.3794 16.1024 13.0654 16.1024 12.7462C16.1024 12.4271 16.022 12.1131 15.8686 11.8333C15.7152 11.5534 15.4939 11.3167 15.2249 11.145C14.7942 10.8288 14.3005 10.6088 13.7774 10.5" stroke="white" stroke-linecap="round" stroke-linejoin="round"/>
</g>
<defs>
<clipPath id="clip0_66_817">
<rect width="18" height="18" fill="white"/>
</clipPath>
</defs>
</svg>
